<?xml version="1.0" encoding="UTF-8" standalone="no"?>
<svg
   xmlns:dc="http://purl.org/dc/elements/1.1/"
   xmlns:cc="http://creativecommons.org/ns#"
   xmlns:rdf="http://www.w3.org/1999/02/22-rdf-syntax-ns#"
   xmlns:svg="http://www.w3.org/2000/svg"
   xmlns="http://www.w3.org/2000/svg"
   xmlns:sodipodi="http://sodipodi.sourceforge.net/DTD/sodipodi-0.dtd"
   xmlns:inkscape="http://www.inkscape.org/namespaces/inkscape"
   width="144"
   height="144"
   id="svg2"
   version="1.1"
   inkscape:version="0.91 r13725"
   sodipodi:docname="arthritis.svg">
  <metadata
     id="metadata22">
    <rdf:RDF>
      <cc:Work
         rdf:about="">
        <dc:format>image/svg+xml</dc:format>
        <dc:type
           rdf:resource="http://purl.org/dc/dcmitype/StillImage" />
        <dc:title>joint pain</dc:title>
      </cc:Work>
    </rdf:RDF>
  </metadata>
  <defs
     id="defs20" />
  <sodipodi:namedview
     pagecolor="#ffffff"
     bordercolor="#666666"
     borderopacity="1"
     objecttolerance="10"
     gridtolerance="10"
     guidetolerance="10"
     inkscape:pageopacity="0"
     inkscape:pageshadow="2"
     inkscape:window-width="1276"
     inkscape:window-height="1347"
     id="namedview18"
     showgrid="false"
     inkscape:zoom="1.0070407"
     inkscape:cx="279.55544"
     inkscape:cy="25.524225"
     inkscape:window-x="1280"
     inkscape:window-y="72"
     inkscape:window-maximized="0"
     inkscape:current-layer="svg2"
     fit-margin-top="0"
     fit-margin-left="0"
     fit-margin-right="0"
     fit-margin-bottom="0" />
  <title
     id="title4">joint pain</title>
  <g
     id="g6"
     transform="translate(228.89534,36.748199)">
    <title
       id="title8">background</title>
    <rect
       id="canvas_background"
       height="402"
       width="582"
       y="-1"
       x="-1"
       style="fill:none" />
  </g>
  <circle
     style="opacity:1;fill:#f45820;fill-opacity:1;stroke:none;stroke-width:1.5;stroke-linecap:round;stroke-miterlimit:4;stroke-dasharray:none;stroke-dashoffset:0;stroke-opacity:1"
     id="path4147"
     cx="72"
     cy="72"
     r="72" />
  <g
     id="g11"
     style="fill:#ffffff;fill-opacity:1"
     transform="matrix(1.2277543,0,0,1.2277543,25.62158,14.455156)">
    <title
       id="title13">Layer 1</title>
    <path
       id="svg_1"
       d="m 44,7 -5.77,9 5.59,-16 4.560001,10.5 11.639996,-9.15 -3.089996,11.39 16.849998,-4.62 -10.75,12.8 12.520004,4.369999 -14.840004,5 11.840004,8.000002 -20.440002,1.330002 12.729996,-3.07 -7.82,-6.930002 9.160004,-4.59 -8.5,-3.470001 7.690002,-7.42 -11.120003,1.68 1.650002,-8 -8.93,6.190001 -2.970001,-7.01 z m -9.75,42.300003 c 6,-2.68 9.540001,-5.190002 15.509998,-14.130001 2.370003,-3.550001 2.420002,-11.790003 -5,-12.850002 -3.199997,-0.459999 -5.23,-0.389999 -10.369999,-5.549999 -3.889999,-3.890001 -13.23,-14.03 -13.23,-14.03 l -21.16,0 c 0,0 21.25,25.36 22.549999,27.560001 A 21.610001,21.610001 0 0 1 24.72,37.740003 c 0.289997,2.080002 -0.470001,3.23 0.25,7.720001 0.529999,3.279999 4.779999,5.849998 9.279999,3.84 z m 23,44.099998 c -0.220001,-7.620003 -0.440002,-24.130005 0,-27.600006 a 65.370003,65.370003 0 0 1 2,-8.079994 c 1.809998,-5.200001 0.25,-17 -7.66,-14.34 -3,1 -5.170002,3.080002 -7.639999,4.860001 a 34.490002,34.490002 0 0 1 -7.830002,3.720001 c -7.41,2.110001 -14.419998,8.77 0.460003,15.939999 A 6.14,6.14 0 0 1 40.07,72.419999 c 1.18,6.860001 1.5,21.32 1.5,21.32 l 15.68,0 c 0,0 0,-0.300003 0,-0.349998 l 0,0.01 z M 27.43,66.099998 c -1.240002,1.389999 -0.18,3.639999 1.32,6.519997 1.5,2.879998 0.900002,4.290001 1.07,8.120003 0.169998,3.830002 0,13 0,13 l 3.220001,0 c 0,0 0,-11 -0.170002,-12.209999 -0.170002,-1.209999 0.25,-7.309998 0.25,-7.309998 0,0 0.91,-1.93 1.73,-3.660004 a 2.33,2.33 0 0 0 0.230003,-1.239998 26,26 0 0 1 -6.34,-4.220001 3.22,3.22 0 0 0 -1.310001,0.989998 l 0,0.01 z"
       style="fill:#ffffff;fill-opacity:1"
       inkscape:connector-curvature="0" />
  </g>
</svg>
