<?xml version="1.0" encoding="UTF-8" standalone="no"?>
<!-- Created with Inkscape (http://www.inkscape.org/) -->

<svg
   xmlns:dc="http://purl.org/dc/elements/1.1/"
   xmlns:cc="http://creativecommons.org/ns#"
   xmlns:rdf="http://www.w3.org/1999/02/22-rdf-syntax-ns#"
   xmlns:svg="http://www.w3.org/2000/svg"
   xmlns="http://www.w3.org/2000/svg"
   xmlns:sodipodi="http://sodipodi.sourceforge.net/DTD/sodipodi-0.dtd"
   xmlns:inkscape="http://www.inkscape.org/namespaces/inkscape"
   width="237.26476mm"
   height="38.710308mm"
   viewBox="0 0 840.70189 137.16251"
   id="svg8570"
   version="1.1"
   inkscape:version="0.91 r13725"
   sodipodi:docname="donnelly.svg">
  <defs
     id="defs8572" />
  <sodipodi:namedview
     id="base"
     pagecolor="#ffffff"
     bordercolor="#666666"
     borderopacity="1.0"
     inkscape:pageopacity="0.0"
     inkscape:pageshadow="2"
     inkscape:zoom="0.49497475"
     inkscape:cx="161.15652"
     inkscape:cy="201.23155"
     inkscape:document-units="px"
     inkscape:current-layer="layer1"
     showgrid="false"
     fit-margin-top="0"
     fit-margin-left="0"
     fit-margin-right="0"
     fit-margin-bottom="0"
     inkscape:window-width="1916"
     inkscape:window-height="987"
     inkscape:window-x="0"
     inkscape:window-y="72"
     inkscape:window-maximized="0" />
  <metadata
     id="metadata8575">
    <rdf:RDF>
      <cc:Work
         rdf:about="">
        <dc:format>image/svg+xml</dc:format>
        <dc:type
           rdf:resource="http://purl.org/dc/dcmitype/StillImage" />
        <dc:title></dc:title>
      </cc:Work>
    </rdf:RDF>
  </metadata>
  <g
     inkscape:label="Layer 1"
     inkscape:groupmode="layer"
     id="layer1"
     transform="translate(320.35094,-503.78095)">
    <g
       id="text7452"
       style="font-style:normal;font-weight:normal;font-size:37.36055374px;line-height:125%;font-family:Sans;letter-spacing:-0.33000001px;word-spacing:0px;fill:#e5e5e5;fill-opacity:1;stroke:none;stroke-width:1px;stroke-linecap:butt;stroke-linejoin:miter;stroke-opacity:1"
       transform="matrix(2.4918464,0,0,2.4918464,-635.32457,-162.30153)">
      <path
         id="path7593"
         style="font-style:normal;font-variant:normal;font-weight:normal;font-stretch:normal;font-family:'Myriad Pro';-inkscape-font-specification:'Myriad Pro';letter-spacing:-0.33000001px;fill:#e5e5e5;fill-opacity:1"
         d="m 220.18278,298.86003 c 1.68122,0.22417 3.58661,0.29889 5.94033,0.29889 4.89423,0 8.77973,-1.27026 11.1708,-3.62398 2.31636,-2.31635 3.62398,-5.6788 3.62398,-9.78846 0,-4.0723 -1.30762,-6.98643 -3.58662,-9.04126 -2.20427,-2.05483 -5.52936,-3.13828 -10.19943,-3.13828 -2.57788,0 -4.93159,0.22416 -6.94906,0.52305 l 0,24.77004 z m 3.28773,-22.37897 c 0.85929,-0.1868 2.12955,-0.33624 3.81077,-0.33624 6.87435,0 10.2368,3.77341 10.19944,9.71374 0,6.79962 -3.77342,10.72248 -10.72248,10.68512 -1.27026,0 -2.4658,0 -3.28773,-0.14944 l 0,-19.91318 z"
         inkscape:connector-curvature="0" />
      <path
         id="path7595"
         style="font-style:normal;font-variant:normal;font-weight:normal;font-stretch:normal;font-family:'Myriad Pro';-inkscape-font-specification:'Myriad Pro';letter-spacing:-0.33000001px;fill:#e5e5e5;fill-opacity:1"
         d="m 252.2041,299.34572 c 4.29646,0 8.96653,-2.91412 8.96653,-9.63902 0,-5.492 -3.51189,-9.26542 -8.70501,-9.26542 -4.96895,0 -8.96653,3.54925 -8.96653,9.60166 0,5.71617 3.81078,9.30278 8.66765,9.30278 l 0.0374,0 z m 0.0747,-2.4658 c -3.17565,0 -5.41728,-2.98884 -5.41728,-6.94906 0,-3.43717 1.68123,-7.02378 5.52936,-7.02378 3.8855,0 5.41728,3.84813 5.41728,6.9117 0,4.10966 -2.35371,7.06114 -5.492,7.06114 l -0.0374,0 z"
         inkscape:connector-curvature="0" />
      <path
         id="path7597"
         style="font-style:normal;font-variant:normal;font-weight:normal;font-stretch:normal;font-family:'Myriad Pro';-inkscape-font-specification:'Myriad Pro';letter-spacing:-0.33000001px;fill:#e5e5e5;fill-opacity:1"
         d="m 264.98123,298.93475 3.28773,0 0,-10.90928 c 0,-0.52305 0.0747,-1.12081 0.22416,-1.53178 0.59777,-1.83067 2.279,-3.36245 4.40855,-3.36245 3.10092,0 4.18438,2.4658 4.18438,5.37992 l 0,10.42359 3.28773,0 0,-10.7972 c 0,-6.20185 -3.8855,-7.69627 -6.38866,-7.69627 -2.98884,0 -5.08103,1.68122 -5.97768,3.36245 l -0.0747,0 -0.1868,-2.95148 -2.91412,0 c 0.11208,1.49442 0.14944,2.98884 0.14944,4.89423 l 0,13.18827 z"
         inkscape:connector-curvature="0" />
      <path
         id="path7599"
         style="font-style:normal;font-variant:normal;font-weight:normal;font-stretch:normal;font-family:'Myriad Pro';-inkscape-font-specification:'Myriad Pro';letter-spacing:-0.33000001px;fill:#e5e5e5;fill-opacity:1"
         d="m 285.37467,298.93475 3.28773,0 0,-10.90928 c 0,-0.52305 0.0747,-1.12081 0.22416,-1.53178 0.59777,-1.83067 2.27899,-3.36245 4.40854,-3.36245 3.10093,0 4.18439,2.4658 4.18439,5.37992 l 0,10.42359 3.28773,0 0,-10.7972 c 0,-6.20185 -3.8855,-7.69627 -6.38866,-7.69627 -2.98884,0 -5.08103,1.68122 -5.97769,3.36245 l -0.0747,0 -0.1868,-2.95148 -2.91413,0 c 0.11209,1.49442 0.14945,2.98884 0.14945,4.89423 l 0,13.18827 z"
         inkscape:connector-curvature="0" />
      <path
         id="path7601"
         style="font-style:normal;font-variant:normal;font-weight:normal;font-stretch:normal;font-family:'Myriad Pro';-inkscape-font-specification:'Myriad Pro';letter-spacing:-0.33000001px;fill:#e5e5e5;fill-opacity:1"
         d="m 320.30135,290.49127 c 0.0747,-0.37361 0.11209,-0.85929 0.11209,-1.53178 0,-3.32509 -1.53179,-8.51821 -7.43475,-8.51821 -5.26784,0 -8.51821,4.29646 -8.51821,9.7511 0,5.41728 3.36245,9.11598 8.89181,9.11598 2.87676,0 4.89423,-0.63513 6.05241,-1.15818 l -0.59777,-2.35371 c -1.19553,0.52304 -2.6526,0.93401 -5.00631,0.93401 -3.28773,0 -6.08977,-1.83067 -6.16449,-6.23921 l 12.66522,0 z m -12.62786,-2.35372 c 0.26152,-2.27899 1.68122,-5.34256 5.04367,-5.34256 3.66134,0 4.55799,3.25037 4.52063,5.34256 l -9.5643,0 z"
         inkscape:connector-curvature="0" />
      <path
         id="path7603"
         style="font-style:normal;font-variant:normal;font-weight:normal;font-stretch:normal;font-family:'Myriad Pro';-inkscape-font-specification:'Myriad Pro';letter-spacing:-0.33000001px;fill:#e5e5e5;fill-opacity:1"
         d="m 324.19134,298.93475 3.28773,0 0,-26.52599 -3.28773,0 0,26.52599 z"
         inkscape:connector-curvature="0" />
      <path
         id="path7605"
         style="font-style:normal;font-variant:normal;font-weight:normal;font-stretch:normal;font-family:'Myriad Pro';-inkscape-font-specification:'Myriad Pro';letter-spacing:-0.33000001px;fill:#e5e5e5;fill-opacity:1"
         d="m 332.69069,298.93475 3.28773,0 0,-26.52599 -3.28773,0 0,26.52599 z"
         inkscape:connector-curvature="0" />
      <path
         id="path7607"
         style="font-style:normal;font-variant:normal;font-weight:normal;font-stretch:normal;font-family:'Myriad Pro';-inkscape-font-specification:'Myriad Pro';letter-spacing:-0.33000001px;fill:#e5e5e5;fill-opacity:1"
         d="m 338.79897,280.85225 6.65018,16.6628 c 0.1868,0.41097 0.26152,0.67249 0.26152,0.8593 0,0.1868 -0.11208,0.44832 -0.26152,0.78457 -0.78458,1.68122 -1.86803,2.95148 -2.76468,3.66133 -0.97138,0.82193 -2.05484,1.34498 -2.87677,1.6065 l 0.82193,2.72733 c 0.82194,-0.14945 2.39108,-0.70986 4.03494,-2.0922 2.24164,-1.98011 3.84814,-5.11839 6.20186,-11.32024 l 4.93159,-12.88939 -3.47453,0 -3.58661,10.61039 c -0.44833,1.30762 -0.82194,2.68996 -1.15818,3.77342 l -0.0747,0 c -0.29889,-1.08346 -0.74721,-2.50316 -1.19554,-3.6987 l -3.92286,-10.68511 -3.58661,0 z"
         inkscape:connector-curvature="0" />
      <path
         id="path7609"
         style="font-style:normal;font-variant:normal;font-weight:normal;font-stretch:normal;font-family:'Myriad Pro';-inkscape-font-specification:'Myriad Pro';letter-spacing:-0.33000001px;fill:#e5e5e5;fill-opacity:1"
         d="m 383.1059,295.49758 c -1.30762,0.63513 -3.32509,1.0461 -5.34256,1.0461 -6.08977,0 -9.63903,-3.92286 -9.63903,-10.08735 0,-6.57546 3.92286,-10.34887 9.82583,-10.34887 2.09219,0 3.84814,0.44832 5.04367,1.04609 l 0.82194,-2.68996 c -0.8593,-0.41097 -2.87677,-1.08346 -5.97769,-1.08346 -7.80836,0 -13.15092,5.3052 -13.15092,13.18828 0,8.25668 5.3052,12.73995 12.40371,12.73995 3.06356,0 5.492,-0.59777 6.65018,-1.19554 l -0.63513,-2.61524 z"
         inkscape:connector-curvature="0" />
      <path
         id="path7611"
         style="font-style:normal;font-variant:normal;font-weight:normal;font-stretch:normal;font-family:'Myriad Pro';-inkscape-font-specification:'Myriad Pro';letter-spacing:-0.33000001px;fill:#e5e5e5;fill-opacity:1"
         d="m 401.50696,290.49127 c 0.0747,-0.37361 0.11208,-0.85929 0.11208,-1.53178 0,-3.32509 -1.53178,-8.51821 -7.43475,-8.51821 -5.26784,0 -8.51821,4.29646 -8.51821,9.7511 0,5.41728 3.36245,9.11598 8.89182,9.11598 2.87676,0 4.89423,-0.63513 6.05241,-1.15818 l -0.59777,-2.35371 c -1.19554,0.52304 -2.6526,0.93401 -5.00632,0.93401 -3.28773,0 -6.08977,-1.83067 -6.16449,-6.23921 l 12.66523,0 z m -12.62787,-2.35372 c 0.26153,-2.27899 1.68123,-5.34256 5.04368,-5.34256 3.66133,0 4.55798,3.25037 4.52062,5.34256 l -9.5643,0 z"
         inkscape:connector-curvature="0" />
      <path
         id="path7613"
         style="font-style:normal;font-variant:normal;font-weight:normal;font-stretch:normal;font-family:'Myriad Pro';-inkscape-font-specification:'Myriad Pro';letter-spacing:-0.33000001px;fill:#e5e5e5;fill-opacity:1"
         d="m 405.39695,298.93475 3.28773,0 0,-10.90928 c 0,-0.52305 0.0747,-1.12081 0.22416,-1.53178 0.59777,-1.83067 2.279,-3.36245 4.40855,-3.36245 3.10093,0 4.18438,2.4658 4.18438,5.37992 l 0,10.42359 3.28773,0 0,-10.7972 c 0,-6.20185 -3.8855,-7.69627 -6.38865,-7.69627 -2.98885,0 -5.08104,1.68122 -5.97769,3.36245 l -0.0747,0 -0.18681,-2.95148 -2.91412,0 c 0.11208,1.49442 0.14944,2.98884 0.14944,4.89423 l 0,13.18827 z"
         inkscape:connector-curvature="0" />
      <path
         id="path7615"
         style="font-style:normal;font-variant:normal;font-weight:normal;font-stretch:normal;font-family:'Myriad Pro';-inkscape-font-specification:'Myriad Pro';letter-spacing:-0.33000001px;fill:#e5e5e5;fill-opacity:1"
         d="m 426.39165,277.52716 0,3.32509 -2.80205,0 0,2.50315 2.80205,0 0,9.82583 c 0,2.12955 0.3736,3.73605 1.27025,4.74479 0.78458,0.85929 2.01747,1.38234 3.54926,1.38234 1.27026,0 2.27899,-0.22416 2.91412,-0.44833 l -0.14944,-2.50315 c -0.48569,0.14944 -1.00874,0.22416 -1.90539,0.22416 -1.83067,0 -2.4658,-1.27026 -2.4658,-3.51189 l 0,-9.71375 4.70743,0 0,-2.50315 -4.70743,0 0,-4.33383 -3.213,1.00874 z"
         inkscape:connector-curvature="0" />
      <path
         id="path7617"
         style="font-style:normal;font-variant:normal;font-weight:normal;font-stretch:normal;font-family:'Myriad Pro';-inkscape-font-specification:'Myriad Pro';letter-spacing:-0.33000001px;fill:#e5e5e5;fill-opacity:1"
         d="m 437.64634,298.93475 3.28773,0 0,-9.67638 c 0,-0.52305 0.0374,-1.0461 0.11208,-1.53178 0.44833,-2.42844 2.09219,-4.18438 4.40855,-4.18438 0.44832,0 0.78457,0.0374 1.12081,0.0747 l 0,-3.10093 c -0.29888,-0.0374 -0.5604,-0.0747 -0.89665,-0.0747 -2.20427,0 -4.22174,1.53178 -5.04367,3.96022 l -0.11209,0 -0.14944,-3.54925 -2.87676,0 c 0.11208,1.68122 0.14944,3.51189 0.14944,5.64144 l 0,12.44106 z"
         inkscape:connector-curvature="0" />
      <path
         id="path7619"
         style="font-style:normal;font-variant:normal;font-weight:normal;font-stretch:normal;font-family:'Myriad Pro';-inkscape-font-specification:'Myriad Pro';letter-spacing:-0.33000001px;fill:#e5e5e5;fill-opacity:1"
         d="m 463.67072,290.49127 c 0.0747,-0.37361 0.11208,-0.85929 0.11208,-1.53178 0,-3.32509 -1.53178,-8.51821 -7.43475,-8.51821 -5.26784,0 -8.51821,4.29646 -8.51821,9.7511 0,5.41728 3.36245,9.11598 8.89181,9.11598 2.87677,0 4.89424,-0.63513 6.05241,-1.15818 l -0.59777,-2.35371 c -1.19553,0.52304 -2.65259,0.93401 -5.00631,0.93401 -3.28773,0 -6.08977,-1.83067 -6.16449,-6.23921 l 12.66523,0 z m -12.62787,-2.35372 c 0.26152,-2.27899 1.68122,-5.34256 5.04367,-5.34256 3.66134,0 4.55799,3.25037 4.52063,5.34256 l -9.5643,0 z"
         inkscape:connector-curvature="0" />
    </g>
    <g
       id="text7456"
       style="font-style:normal;font-weight:normal;font-size:16.0616684px;line-height:125%;font-family:Sans;letter-spacing:-0.3057811px;word-spacing:0px;fill:#e5e5e5;fill-opacity:1;stroke:none;stroke-width:1px;stroke-linecap:butt;stroke-linejoin:miter;stroke-opacity:1"
       transform="matrix(2.4918464,0,0,2.4918464,-635.32457,-162.30153)">
      <path
         id="path7528"
         style="font-style:normal;font-variant:normal;font-weight:normal;font-stretch:normal;font-family:'Myriad Pro';-inkscape-font-specification:'Myriad Pro';letter-spacing:0.02px;fill:#e5e5e5;fill-opacity:1"
         d="m 224.01784,322.17264 0,-6.69772 1.86316,0 0,-1.07613 -1.87922,0 0,-0.4176 c 0,-1.18857 0.32123,-2.24864 1.5098,-2.24864 0.4176,0 0.69065,0.0803 0.91551,0.17668 l 0.17668,-1.09219 c -0.27305,-0.11243 -0.69065,-0.22486 -1.20462,-0.22486 -0.64247,0 -1.34918,0.2088 -1.87922,0.72277 -0.65853,0.62641 -0.91551,1.62223 -0.91551,2.71442 l 0,0.36942 -1.07614,0 0,1.07613 1.07614,0 0,6.69772 1.41342,0 z"
         inkscape:connector-curvature="0" />
      <path
         id="path7530"
         style="font-style:normal;font-variant:normal;font-weight:normal;font-stretch:normal;font-family:'Myriad Pro';-inkscape-font-specification:'Myriad Pro';letter-spacing:0.02px;fill:#e5e5e5;fill-opacity:1"
         d="m 230.16211,322.34932 c 1.84709,0 3.8548,-1.25281 3.8548,-4.14391 0,-2.36107 -1.5098,-3.9833 -3.74237,-3.9833 -2.1362,0 -3.8548,1.52586 -3.8548,4.12785 0,2.45744 1.63829,3.99936 3.72631,3.99936 l 0.0161,0 z m 0.0321,-1.06007 c -1.36524,0 -2.32894,-1.28494 -2.32894,-2.98747 0,-1.47768 0.72277,-3.0196 2.37713,-3.0196 1.67041,0 2.32894,1.65435 2.32894,2.97141 0,1.76678 -1.01189,3.03566 -2.36107,3.03566 l -0.0161,0 z"
         inkscape:connector-curvature="0" />
      <path
         id="path7532"
         style="font-style:normal;font-variant:normal;font-weight:normal;font-stretch:normal;font-family:'Myriad Pro';-inkscape-font-specification:'Myriad Pro';letter-spacing:0.02px;fill:#e5e5e5;fill-opacity:1"
         d="m 235.81699,322.17264 1.41343,0 0,-4.15997 c 0,-0.22487 0.0161,-0.44973 0.0482,-0.65853 0.19274,-1.04401 0.89946,-1.79891 1.89528,-1.79891 0.19274,0 0.3373,0.0161 0.48185,0.0321 l 0,-1.33311 c -0.12849,-0.0161 -0.24092,-0.0321 -0.38548,-0.0321 -0.94764,0 -1.81497,0.65853 -2.16832,1.70254 l -0.0482,0 -0.0643,-1.52586 -1.23674,0 c 0.0482,0.72278 0.0642,1.5098 0.0642,2.42531 l 0,5.34854 z"
         inkscape:connector-curvature="0" />
      <path
         id="path7534"
         style="fill:#e5e5e5;fill-opacity:1"
         d="m 251.83936,320.69496 c -0.56216,0.27305 -1.42949,0.44973 -2.29682,0.44973 -2.61805,0 -4.14391,-1.68647 -4.14391,-4.33665 0,-2.82685 1.68647,-4.44908 4.22422,-4.44908 0.89945,0 1.65435,0.19274 2.16832,0.44973 l 0.35336,-1.15644 c -0.36942,-0.17668 -1.23675,-0.46579 -2.56987,-0.46579 -3.35689,0 -5.65371,2.28075 -5.65371,5.66977 0,3.54962 2.28076,5.47702 5.33248,5.47702 1.31705,0 2.36106,-0.25698 2.85897,-0.51397 l -0.27304,-1.12432 z"
         inkscape:connector-curvature="0" />
      <path
         id="path7536"
         style="fill:#e5e5e5;fill-opacity:1"
         d="m 259.91202,318.5427 c 0.0321,-0.16062 0.0482,-0.36942 0.0482,-0.65853 0,-1.42949 -0.65853,-3.66206 -3.19627,-3.66206 -2.2647,0 -3.66207,1.84709 -3.66207,4.1921 0,2.32894 1.44555,3.91904 3.82268,3.91904 1.23675,0 2.10408,-0.27304 2.60199,-0.49791 l -0.25698,-1.01188 c -0.51398,0.22486 -1.14038,0.40154 -2.15227,0.40154 -1.41342,0 -2.61805,-0.78702 -2.65017,-2.6823 l 5.4449,0 z m -5.42884,-1.01188 c 0.11243,-0.97977 0.72277,-2.29682 2.16832,-2.29682 1.57405,0 1.95953,1.39736 1.94347,2.29682 l -4.11179,0 z"
         inkscape:connector-curvature="0" />
      <path
         id="path7538"
         style="fill:#e5e5e5;fill-opacity:1"
         d="m 261.74624,322.17264 1.41343,0 0,-11.40379 -1.41343,0 0,11.40379 z"
         inkscape:connector-curvature="0" />
      <path
         id="path7540"
         style="fill:#e5e5e5;fill-opacity:1"
         d="m 265.56206,322.17264 1.41343,0 0,-11.40379 -1.41343,0 0,11.40379 z"
         inkscape:connector-curvature="0" />
      <path
         id="path7542"
         style="fill:#e5e5e5;fill-opacity:1"
         d="m 275.88286,314.39879 -1.41343,0 0,4.75425 c 0,0.27305 -0.0482,0.53004 -0.12849,0.72278 -0.25699,0.64247 -0.91551,1.30099 -1.86315,1.30099 -1.26887,0 -1.73466,-1.01188 -1.73466,-2.48955 l 0,-4.28847 -1.41343,0 0,4.54545 c 0,2.71442 1.46161,3.40508 2.6823,3.40508 1.3813,0 2.21651,-0.81915 2.56987,-1.44555 l 0.0321,0 0.0803,1.26887 1.25281,0 c -0.0482,-0.61035 -0.0643,-1.31706 -0.0643,-2.1362 l 0,-5.63765 z"
         inkscape:connector-curvature="0" />
      <path
         id="path7544"
         style="fill:#e5e5e5;fill-opacity:1"
         d="m 278.24435,322.17264 1.41343,0 0,-11.40379 -1.41343,0 0,11.40379 z"
         inkscape:connector-curvature="0" />
      <path
         id="path7546"
         style="fill:#e5e5e5;fill-opacity:1"
         d="m 287.53721,317.40232 c 0,-1.55798 -0.57822,-3.18021 -2.97141,-3.18021 -0.97976,0 -1.9274,0.27305 -2.56987,0.67459 l 0.32123,0.94764 c 0.5461,-0.36942 1.301,-0.57822 2.03984,-0.57822 1.5901,-0.0161 1.76678,1.15644 1.76678,1.79891 l 0,0.16061 c -3.00353,-0.0161 -4.67395,1.01189 -4.67395,2.8911 0,1.12432 0.80309,2.23258 2.37713,2.23258 1.10826,0 1.95953,-0.5461 2.37713,-1.15644 l 0.0482,0 0.1285,0.97976 1.26887,0 c -0.0803,-0.53004 -0.11243,-1.18857 -0.11243,-1.86316 l 0,-2.90716 z m -1.38131,2.15227 c 0,0.14455 -0.0161,0.30517 -0.0642,0.44972 -0.22487,0.65853 -0.88339,1.301 -1.91134,1.301 -0.70672,0 -1.31706,-0.41761 -1.31706,-1.34918 0,-1.5098 1.75072,-1.78285 3.29264,-1.75072 l 0,1.34918 z"
         inkscape:connector-curvature="0" />
      <path
         id="path7548"
         style="fill:#e5e5e5;fill-opacity:1"
         d="m 289.82868,322.17264 1.41342,0 0,-4.15997 c 0,-0.22487 0.0161,-0.44973 0.0482,-0.65853 0.19274,-1.04401 0.89945,-1.79891 1.89527,-1.79891 0.19274,0 0.3373,0.0161 0.48185,0.0321 l 0,-1.33311 c -0.12849,-0.0161 -0.24092,-0.0321 -0.38548,-0.0321 -0.94763,0 -1.81496,0.65853 -2.16832,1.70254 l -0.0482,0 -0.0642,-1.52586 -1.23675,0 c 0.0482,0.72278 0.0643,1.5098 0.0643,2.42531 l 0,5.34854 z"
         inkscape:connector-curvature="0" />
      <path
         id="path7550"
         style="font-style:normal;font-variant:normal;font-weight:normal;font-stretch:normal;font-family:'Myriad Pro';-inkscape-font-specification:'Myriad Pro';letter-spacing:0.02px;fill:#e5e5e5;fill-opacity:1"
         d="m 301.62682,313.62783 0,3.77449 -3.62994,0 0,0.9637 3.62994,0 0,3.80662 1.02795,0 0,-3.80662 3.62993,0 0,-0.9637 -3.62993,0 0,-3.77449 -1.02795,0 z"
         inkscape:connector-curvature="0" />
      <path
         id="path7552"
         style="fill:#e5e5e5;fill-opacity:1"
         d="m 311.60247,322.14051 c 0.46579,0.0643 1.20462,0.1285 2.16832,0.1285 1.76679,0 2.98747,-0.32124 3.72631,-1.01189 0.56216,-0.53003 0.93158,-1.23675 0.93158,-2.16832 0,-1.60617 -1.20463,-2.45744 -2.23257,-2.69836 l 0,-0.0482 c 1.12431,-0.40154 1.83103,-1.31705 1.83103,-2.37712 0,-0.85127 -0.35336,-1.49374 -0.91552,-1.91134 -0.65853,-0.5461 -1.55798,-0.78702 -2.95535,-0.78702 -0.9637,0 -1.94346,0.0964 -2.5538,0.24092 l 0,10.63282 z m 1.39736,-9.70124 c 0.22487,-0.0482 0.59429,-0.0964 1.23675,-0.0964 1.41343,0 2.36107,0.51397 2.36107,1.76678 0,1.04401 -0.86733,1.83103 -2.32894,1.83103 l -1.26888,0 0,-3.50144 z m 0,4.54545 1.15644,0 c 1.52586,0 2.79473,0.6264 2.79473,2.08802 0,1.57404 -1.33311,2.10407 -2.77866,2.10407 -0.49792,0 -0.8834,-0.0161 -1.17251,-0.0642 l 0,-4.12785 z"
         inkscape:connector-curvature="0" />
      <path
         id="path7554"
         style="fill:#e5e5e5;fill-opacity:1"
         d="m 321.70869,322.17264 0,-7.77385 -1.41342,0 0,7.77385 1.41342,0 z m -0.72277,-9.09091 c 0.54609,0 0.88339,-0.40154 0.88339,-0.86733 0,-0.49791 -0.35336,-0.88339 -0.86733,-0.88339 -0.53004,0 -0.88339,0.38548 -0.88339,0.88339 0,0.46579 0.33729,0.86733 0.85127,0.86733 l 0.0161,0 z"
         inkscape:connector-curvature="0" />
      <path
         id="path7556"
         style="fill:#e5e5e5;fill-opacity:1"
         d="m 327.25993,322.34932 c 1.84709,0 3.8548,-1.25281 3.8548,-4.14391 0,-2.36107 -1.5098,-3.9833 -3.74237,-3.9833 -2.1362,0 -3.8548,1.52586 -3.8548,4.12785 0,2.45744 1.63829,3.99936 3.72631,3.99936 l 0.0161,0 z m 0.0321,-1.06007 c -1.36524,0 -2.32894,-1.28494 -2.32894,-2.98747 0,-1.47768 0.72278,-3.0196 2.37713,-3.0196 1.67041,0 2.32894,1.65435 2.32894,2.97141 0,1.76678 -1.01188,3.03566 -2.36106,3.03566 l -0.0161,0 z"
         inkscape:connector-curvature="0" />
      <path
         id="path7558"
         style="fill:#e5e5e5;fill-opacity:1"
         d="m 332.91482,322.17264 1.3813,0 0,-4.69001 c 0,-0.24092 0.0321,-0.48185 0.11243,-0.69065 0.22487,-0.70671 0.8834,-1.41343 1.75073,-1.41343 1.07613,0 1.62222,0.88339 1.62222,2.12014 l 0,4.67395 1.38131,0 0,-4.8185 c 0,-0.24093 0.0482,-0.49791 0.11243,-0.70672 0.25699,-0.67459 0.86733,-1.26887 1.68647,-1.26887 1.12432,0 1.68648,0.88339 1.68648,2.39319 l 0,4.4009 1.3813,0 0,-4.57758 c 0,-2.69836 -1.52585,-3.37295 -2.56986,-3.37295 -0.73884,0 -1.23675,0.19274 -1.70254,0.5461 -0.32123,0.24092 -0.64247,0.56216 -0.88339,1.01188 l -0.0321,0 c -0.33729,-0.91551 -1.14037,-1.55798 -2.18438,-1.55798 -1.301,0 -2.02377,0.69065 -2.45744,1.42949 l -0.0482,0 -0.0643,-1.25281 -1.23675,0 c 0.0321,0.64247 0.0643,1.28493 0.0643,2.10408 l 0,5.66977 z"
         inkscape:connector-curvature="0" />
      <path
         id="path7560"
         style="fill:#e5e5e5;fill-opacity:1"
         d="m 349.51021,322.34932 c 1.84709,0 3.8548,-1.25281 3.8548,-4.14391 0,-2.36107 -1.5098,-3.9833 -3.74237,-3.9833 -2.1362,0 -3.8548,1.52586 -3.8548,4.12785 0,2.45744 1.63829,3.99936 3.7263,3.99936 l 0.0161,0 z m 0.0321,-1.06007 c -1.36524,0 -2.32894,-1.28494 -2.32894,-2.98747 0,-1.47768 0.72277,-3.0196 2.37712,-3.0196 1.67042,0 2.32895,1.65435 2.32895,2.97141 0,1.76678 -1.01189,3.03566 -2.36107,3.03566 l -0.0161,0 z"
         inkscape:connector-curvature="0" />
      <path
         id="path7562"
         style="fill:#e5e5e5;fill-opacity:1"
         d="m 355.16509,322.17264 1.41342,0 0,-11.40379 -1.41342,0 0,11.40379 z"
         inkscape:connector-curvature="0" />
      <path
         id="path7564"
         style="fill:#e5e5e5;fill-opacity:1"
         d="m 365.2289,318.5427 c 0.0321,-0.16062 0.0482,-0.36942 0.0482,-0.65853 0,-1.42949 -0.65853,-3.66206 -3.19628,-3.66206 -2.26469,0 -3.66206,1.84709 -3.66206,4.1921 0,2.32894 1.44555,3.91904 3.82268,3.91904 1.23675,0 2.10408,-0.27304 2.60199,-0.49791 l -0.25699,-1.01188 c -0.51397,0.22486 -1.14037,0.40154 -2.15226,0.40154 -1.41343,0 -2.61805,-0.78702 -2.65017,-2.6823 l 5.4449,0 z m -5.42884,-1.01188 c 0.11243,-0.97977 0.72277,-2.29682 2.16832,-2.29682 1.57405,0 1.95953,1.39736 1.94346,2.29682 l -4.11178,0 z"
         inkscape:connector-curvature="0" />
      <path
         id="path7566"
         style="fill:#e5e5e5;fill-opacity:1"
         d="m 372.36348,320.82346 c -0.40154,0.17668 -0.93158,0.36942 -1.73466,0.36942 -1.54192,0 -2.69836,-1.10826 -2.69836,-2.90717 0,-1.60616 0.9637,-2.93928 2.74654,-2.93928 0.77096,0 1.301,0.19274 1.63829,0.36942 l 0.32124,-1.07613 c -0.38548,-0.20881 -1.12432,-0.41761 -1.95953,-0.41761 -2.53774,0 -4.17603,1.75072 -4.17603,4.14391 0,2.37713 1.52586,3.96723 3.87086,3.96723 1.04401,0 1.86315,-0.27304 2.23257,-0.44972 l -0.24092,-1.06007 z"
         inkscape:connector-curvature="0" />
      <path
         id="path7568"
         style="fill:#e5e5e5;fill-opacity:1"
         d="m 380.77193,314.39879 -1.41343,0 0,4.75425 c 0,0.27305 -0.0482,0.53004 -0.12849,0.72278 -0.25699,0.64247 -0.91552,1.30099 -1.86315,1.30099 -1.26888,0 -1.73466,-1.01188 -1.73466,-2.48955 l 0,-4.28847 -1.41343,0 0,4.54545 c 0,2.71442 1.46161,3.40508 2.6823,3.40508 1.3813,0 2.21651,-0.81915 2.56986,-1.44555 l 0.0321,0 0.0803,1.26887 1.25281,0 c -0.0482,-0.61035 -0.0643,-1.31706 -0.0643,-2.1362 l 0,-5.63765 z"
         inkscape:connector-curvature="0" />
      <path
         id="path7570"
         style="fill:#e5e5e5;fill-opacity:1"
         d="m 383.13342,322.17264 1.41343,0 0,-11.40379 -1.41343,0 0,11.40379 z"
         inkscape:connector-curvature="0" />
      <path
         id="path7572"
         style="fill:#e5e5e5;fill-opacity:1"
         d="m 392.42628,317.40232 c 0,-1.55798 -0.57822,-3.18021 -2.97141,-3.18021 -0.97976,0 -1.9274,0.27305 -2.56987,0.67459 l 0.32124,0.94764 c 0.54609,-0.36942 1.30099,-0.57822 2.03983,-0.57822 1.5901,-0.0161 1.76678,1.15644 1.76678,1.79891 l 0,0.16061 c -3.00353,-0.0161 -4.67394,1.01189 -4.67394,2.8911 0,1.12432 0.80308,2.23258 2.37712,2.23258 1.10826,0 1.95953,-0.5461 2.37713,-1.15644 l 0.0482,0 0.12849,0.97976 1.26887,0 c -0.0803,-0.53004 -0.11243,-1.18857 -0.11243,-1.86316 l 0,-2.90716 z m -1.3813,2.15227 c 0,0.14455 -0.0161,0.30517 -0.0643,0.44972 -0.22486,0.65853 -0.88339,1.301 -1.91134,1.301 -0.70671,0 -1.31706,-0.41761 -1.31706,-1.34918 0,-1.5098 1.75073,-1.78285 3.29265,-1.75072 l 0,1.34918 z"
         inkscape:connector-curvature="0" />
      <path
         id="path7574"
         style="fill:#e5e5e5;fill-opacity:1"
         d="m 394.71774,322.17264 1.41343,0 0,-4.15997 c 0,-0.22487 0.0161,-0.44973 0.0482,-0.65853 0.19274,-1.04401 0.89945,-1.79891 1.89527,-1.79891 0.19274,0 0.3373,0.0161 0.48185,0.0321 l 0,-1.33311 c -0.12849,-0.0161 -0.24092,-0.0321 -0.38548,-0.0321 -0.94764,0 -1.81497,0.65853 -2.16832,1.70254 l -0.0482,0 -0.0642,-1.52586 -1.23675,0 c 0.0482,0.72278 0.0642,1.5098 0.0642,2.42531 l 0,5.34854 z"
         inkscape:connector-curvature="0" />
      <path
         id="path7576"
         style="font-style:normal;font-variant:normal;font-weight:normal;font-stretch:normal;font-family:'Myriad Pro';-inkscape-font-specification:'Myriad Pro';letter-spacing:0.02px;fill:#e5e5e5;fill-opacity:1"
         d="m 403.46417,322.17264 1.39737,0 0,-4.69001 1.31705,0 c 1.26888,0.0482 1.86316,0.61034 2.18439,2.10408 0.28911,1.34918 0.53004,2.26469 0.70671,2.58593 l 1.44555,0 c -0.2088,-0.41761 -0.46578,-1.46161 -0.81914,-2.97141 -0.27305,-1.12432 -0.77096,-1.89528 -1.59011,-2.18439 l 0,-0.0482 c 1.12432,-0.38548 2.03984,-1.33312 2.03984,-2.74655 0,-0.85127 -0.32124,-1.5901 -0.85127,-2.05589 -0.67459,-0.61034 -1.65435,-0.89945 -3.14809,-0.89945 -0.94764,0 -1.97559,0.0964 -2.6823,0.24092 l 0,10.66495 z m 1.39737,-9.68519 c 0.24092,-0.0642 0.70671,-0.12849 1.3813,-0.12849 1.47767,0 2.48956,0.61034 2.48956,2.00771 0,1.23675 -0.94764,2.05589 -2.44138,2.05589 l -1.42948,0 0,-3.93511 z"
         inkscape:connector-curvature="0" />
      <path
         id="path7578"
         style="font-style:normal;font-variant:normal;font-weight:normal;font-stretch:normal;font-family:'Myriad Pro';-inkscape-font-specification:'Myriad Pro';letter-spacing:0.02px;fill:#e5e5e5;fill-opacity:1"
         d="m 418.37359,318.5427 c 0.0321,-0.16062 0.0482,-0.36942 0.0482,-0.65853 0,-1.42949 -0.65853,-3.66206 -3.19627,-3.66206 -2.2647,0 -3.66206,1.84709 -3.66206,4.1921 0,2.32894 1.44555,3.91904 3.82267,3.91904 1.23675,0 2.10408,-0.27304 2.602,-0.49791 l -0.25699,-1.01188 c -0.51397,0.22486 -1.14038,0.40154 -2.15227,0.40154 -1.41342,0 -2.61805,-0.78702 -2.65017,-2.6823 l 5.44491,0 z m -5.42885,-1.01188 c 0.11243,-0.97977 0.72278,-2.29682 2.16833,-2.29682 1.57404,0 1.95952,1.39736 1.94346,2.29682 l -4.11179,0 z"
         inkscape:connector-curvature="0" />
      <path
         id="path7580"
         style="font-style:normal;font-variant:normal;font-weight:normal;font-stretch:normal;font-family:'Myriad Pro';-inkscape-font-specification:'Myriad Pro';letter-spacing:0.02px;fill:#e5e5e5;fill-opacity:1"
         d="m 419.67778,321.78716 c 0.54609,0.32123 1.33311,0.54609 2.18438,0.54609 1.81497,0 2.8911,-0.9637 2.8911,-2.345 0,-1.15644 -0.70671,-1.83103 -2.03983,-2.32894 -1.01188,-0.40154 -1.46161,-0.69065 -1.46161,-1.33312 0,-0.57822 0.44973,-1.06007 1.28493,-1.06007 0.72278,0 1.28494,0.27305 1.59011,0.44973 l 0.33729,-1.01189 c -0.4176,-0.27305 -1.10825,-0.48185 -1.89527,-0.48185 -1.65436,0 -2.6823,1.02795 -2.6823,2.28076 0,0.91551 0.65853,1.68647 2.07195,2.20045 1.02795,0.38548 1.42949,0.73883 1.42949,1.41342 0,0.65853 -0.48185,1.15644 -1.49373,1.15644 -0.70672,0 -1.44555,-0.28911 -1.87922,-0.54609 l -0.33729,1.06007 z"
         inkscape:connector-curvature="0" />
      <path
         id="path7582"
         style="font-style:normal;font-variant:normal;font-weight:normal;font-stretch:normal;font-family:'Myriad Pro';-inkscape-font-specification:'Myriad Pro';letter-spacing:0.02px;fill:#e5e5e5;fill-opacity:1"
         d="m 432.844,318.5427 c 0.0321,-0.16062 0.0482,-0.36942 0.0482,-0.65853 0,-1.42949 -0.65852,-3.66206 -3.19627,-3.66206 -2.26469,0 -3.66206,1.84709 -3.66206,4.1921 0,2.32894 1.44555,3.91904 3.82268,3.91904 1.23675,0 2.10408,-0.27304 2.60199,-0.49791 l -0.25699,-1.01188 c -0.51397,0.22486 -1.14038,0.40154 -2.15226,0.40154 -1.41343,0 -2.61805,-0.78702 -2.65018,-2.6823 l 5.44491,0 z m -5.42885,-1.01188 c 0.11244,-0.97977 0.72278,-2.29682 2.16833,-2.29682 1.57404,0 1.95952,1.39736 1.94346,2.29682 l -4.11179,0 z"
         inkscape:connector-curvature="0" />
      <path
         id="path7584"
         style="font-style:normal;font-variant:normal;font-weight:normal;font-stretch:normal;font-family:'Myriad Pro';-inkscape-font-specification:'Myriad Pro';letter-spacing:0.02px;fill:#e5e5e5;fill-opacity:1"
         d="m 440.15524,317.40232 c 0,-1.55798 -0.57822,-3.18021 -2.97141,-3.18021 -0.97976,0 -1.9274,0.27305 -2.56987,0.67459 l 0.32124,0.94764 c 0.54609,-0.36942 1.30099,-0.57822 2.03983,-0.57822 1.5901,-0.0161 1.76678,1.15644 1.76678,1.79891 l 0,0.16061 c -3.00353,-0.0161 -4.67394,1.01189 -4.67394,2.8911 0,1.12432 0.80308,2.23258 2.37712,2.23258 1.10826,0 1.95953,-0.5461 2.37713,-1.15644 l 0.0482,0 0.1285,0.97976 1.26887,0 c -0.0803,-0.53004 -0.11243,-1.18857 -0.11243,-1.86316 l 0,-2.90716 z m -1.38131,2.15227 c 0,0.14455 -0.0161,0.30517 -0.0642,0.44972 -0.22487,0.65853 -0.88339,1.301 -1.91134,1.301 -0.70671,0 -1.31706,-0.41761 -1.31706,-1.34918 0,-1.5098 1.75072,-1.78285 3.29264,-1.75072 l 0,1.34918 z"
         inkscape:connector-curvature="0" />
      <path
         id="path7586"
         style="font-style:normal;font-variant:normal;font-weight:normal;font-stretch:normal;font-family:'Myriad Pro';-inkscape-font-specification:'Myriad Pro';letter-spacing:0.02px;fill:#e5e5e5;fill-opacity:1"
         d="m 442.44672,322.17264 1.41342,0 0,-4.15997 c 0,-0.22487 0.0161,-0.44973 0.0482,-0.65853 0.19274,-1.04401 0.89945,-1.79891 1.89528,-1.79891 0.19274,0 0.33729,0.0161 0.48185,0.0321 l 0,-1.33311 c -0.1285,-0.0161 -0.24093,-0.0321 -0.38548,-0.0321 -0.94764,0 -1.81497,0.65853 -2.16833,1.70254 l -0.0482,0 -0.0643,-1.52586 -1.23675,0 c 0.0482,0.72278 0.0643,1.5098 0.0643,2.42531 l 0,5.34854 z"
         inkscape:connector-curvature="0" />
      <path
         id="path7588"
         style="font-style:normal;font-variant:normal;font-weight:normal;font-stretch:normal;font-family:'Myriad Pro';-inkscape-font-specification:'Myriad Pro';letter-spacing:0.02px;fill:#e5e5e5;fill-opacity:1"
         d="m 452.84907,320.82346 c -0.40154,0.17668 -0.93157,0.36942 -1.73466,0.36942 -1.54192,0 -2.69836,-1.10826 -2.69836,-2.90717 0,-1.60616 0.9637,-2.93928 2.74655,-2.93928 0.77096,0 1.30099,0.19274 1.63829,0.36942 l 0.32123,-1.07613 c -0.38548,-0.20881 -1.12432,-0.41761 -1.95952,-0.41761 -2.53775,0 -4.17604,1.75072 -4.17604,4.14391 0,2.37713 1.52586,3.96723 3.87087,3.96723 1.044,0 1.86315,-0.27304 2.23257,-0.44972 l -0.24093,-1.06007 z"
         inkscape:connector-curvature="0" />
      <path
         id="path7590"
         style="font-style:normal;font-variant:normal;font-weight:normal;font-stretch:normal;font-family:'Myriad Pro';-inkscape-font-specification:'Myriad Pro';letter-spacing:0.02px;fill:#e5e5e5;fill-opacity:1"
         d="m 454.75255,322.17264 1.41343,0 0,-4.69001 c 0,-0.27305 0.0161,-0.48185 0.0964,-0.67459 0.27304,-0.77096 0.97976,-1.41343 1.89527,-1.41343 1.33312,0 1.79891,1.04401 1.79891,2.29682 l 0,4.48121 1.41343,0 0,-4.62576 c 0,-2.6823 -1.67042,-3.32477 -2.71443,-3.32477 -0.53003,0 -1.02794,0.14456 -1.44555,0.40154 -0.43366,0.22487 -0.78702,0.59429 -1.01188,0.99583 l -0.0321,0 0,-4.85063 -1.41343,0 0,11.40379 z"
         inkscape:connector-curvature="0" />
    </g>
    <g
       style="fill:#59f2ff;fill-opacity:1"
       transform="matrix(2.4918464,0,0,2.4918464,-634.49117,-609.11399)"
       id="g7468">
      <path
         inkscape:connector-curvature="0"
         id="path7478"
         d="m 24.199219,438.66211 0,10.38672 11.466797,0 0,21.46679 6.808593,0 0,-13.22265 22.50586,0 0,-18.63086 -40.78125,0 z"
         style="opacity:1;fill:#e5e5e5;fill-opacity:1;stroke:none;stroke-width:1.60000002;stroke-linecap:butt;stroke-linejoin:miter;stroke-miterlimit:4;stroke-dasharray:none;stroke-dashoffset:7.19999981;stroke-opacity:1"
         transform="translate(120.41005,7.9524739)" />
      <rect
         style="opacity:1;fill:#e5e5e5;fill-opacity:1;stroke:none;stroke-width:1.60000002;stroke-linecap:butt;stroke-linejoin:miter;stroke-miterlimit:4;stroke-dasharray:none;stroke-dashoffset:7.19999981;stroke-opacity:1"
         id="rect7470"
         width="30.660898"
         height="32.446609"
         x="162.88385"
         y="465.24606" />
      <rect
         style="opacity:1;fill:#e5e5e5;fill-opacity:1;stroke:none;stroke-width:1.60000002;stroke-linecap:butt;stroke-linejoin:miter;stroke-miterlimit:4;stroke-dasharray:none;stroke-dashoffset:7.19999981;stroke-opacity:1"
         id="rect7472"
         width="30.008348"
         height="30.722635"
         x="126.06725"
         y="457.00092" />
      <path
         inkscape:connector-curvature="0"
         transform="translate(120.41005,7.9524739)"
         id="path7474"
         d="m 64.980469,457.29297 -22.50586,0 0,13.22265 22.50586,0 0,-13.22265 z"
         style="opacity:1;fill:#e5e5e5;fill-opacity:1;stroke:#3a3a3c;stroke-width:1.60000002;stroke-linecap:butt;stroke-linejoin:miter;stroke-miterlimit:4;stroke-dasharray:none;stroke-dashoffset:7.19999981;stroke-opacity:1" />
      <path
         inkscape:connector-curvature="0"
         transform="translate(120.41005,7.9524739)"
         id="path7476"
         d="m 35.666016,470.51562 0,-21.46679 -11.466797,0 0,21.46679 11.466797,0 z"
         style="opacity:1;fill:#e5e5e5;fill-opacity:1;stroke:#3a3a3c;stroke-width:1.60000002;stroke-linecap:butt;stroke-linejoin:miter;stroke-miterlimit:4;stroke-dasharray:none;stroke-dashoffset:7.19999981;stroke-opacity:1" />
    </g>
  </g>
</svg>
