<?xml version="1.0" encoding="UTF-8" standalone="no"?>
<!-- Created with Inkscape (http://www.inkscape.org/) -->

<svg
   xmlns:dc="http://purl.org/dc/elements/1.1/"
   xmlns:cc="http://creativecommons.org/ns#"
   xmlns:rdf="http://www.w3.org/1999/02/22-rdf-syntax-ns#"
   xmlns:svg="http://www.w3.org/2000/svg"
   xmlns="http://www.w3.org/2000/svg"
   xmlns:sodipodi="http://sodipodi.sourceforge.net/DTD/sodipodi-0.dtd"
   xmlns:inkscape="http://www.inkscape.org/namespaces/inkscape"
   width="109.64945mm"
   height="20.295475mm"
   viewBox="0 0 388.52169 71.913103"
   id="svg4698"
   version="1.1"
   inkscape:version="0.91 r13725"
   sodipodi:docname="morris_lab_logo.svg">
  <defs
     id="defs4700" />
  <sodipodi:namedview
     id="base"
     pagecolor="#ffffff"
     bordercolor="#666666"
     borderopacity="1.0"
     inkscape:pageopacity="0.0"
     inkscape:pageshadow="2"
     inkscape:zoom="2.8"
     inkscape:cx="238.30084"
     inkscape:cy="84.413866"
     inkscape:document-units="px"
     inkscape:current-layer="layer1"
     showgrid="false"
     inkscape:window-width="1916"
     inkscape:window-height="1041"
     inkscape:window-x="0"
     inkscape:window-y="18"
     inkscape:window-maximized="0"
     fit-margin-top="0"
     fit-margin-left="0"
     fit-margin-right="0"
     fit-margin-bottom="0"
     showguides="true"
     inkscape:guide-bbox="true">
    <sodipodi:guide
       position="312.77008,9.7508237"
       orientation="0,1"
       id="guide4197" />
  </sodipodi:namedview>
  <metadata
     id="metadata4703">
    <rdf:RDF>
      <cc:Work
         rdf:about="">
        <dc:format>image/svg+xml</dc:format>
        <dc:type
           rdf:resource="http://purl.org/dc/dcmitype/StillImage" />
        <dc:title></dc:title>
      </cc:Work>
    </rdf:RDF>
  </metadata>
  <g
     inkscape:label="Layer 1"
     inkscape:groupmode="layer"
     id="layer1"
     transform="translate(313.40562,-223.13187)">
    <g
       id="text7676"
       style="font-style:normal;font-weight:normal;font-size:57.11399841px;line-height:125%;font-family:Sans;letter-spacing:0px;word-spacing:0px;fill:#f45820;fill-opacity:1;stroke:none;stroke-width:1px;stroke-linecap:butt;stroke-linejoin:miter;stroke-opacity:1"
       transform="translate(-357.85714,-464.28572)"
       inkscape:export-filename="/tmp/morrislogo.png"
       inkscape:export-xdpi="149.75468"
       inkscape:export-ydpi="149.75468">
      <path
         inkscape:connector-curvature="0"
         id="path7707"
         style="font-style:normal;font-variant:normal;font-weight:normal;font-stretch:normal;font-family:Insignia;-inkscape-font-specification:Insignia;fill:#f45820;fill-opacity:1"
         d="m 199.36445,748.12311 5.93985,0 0,-17.24843 q 0,-2.39879 1.31363,-3.76952 1.31362,-1.42785 3.25549,-1.42785 2.28456,0 3.59819,1.48496 1.37073,1.42785 1.37073,4.51201 l 0,16.44883 5.93986,0 0,-16.44883 q 0,-3.08416 1.31362,-4.51201 1.37074,-1.48496 3.6553,-1.48496 1.94187,0 3.25549,1.42785 1.31363,1.37073 1.31363,3.76952 l 0,17.24843 5.93985,0 0,-17.30554 q 0,-5.08315 -2.96993,-8.05308 -2.91281,-3.02704 -7.13925,-3.02704 -3.02704,0 -5.25448,1.37074 -2.17034,1.31362 -3.02705,3.54106 l -0.11422,0 q -0.85671,-2.22744 -3.02705,-3.54106 -2.17033,-1.37074 -5.25448,-1.37074 -4.22644,0 -7.19637,3.02704 -2.91281,2.96993 -2.91281,8.05308 l 0,17.30554 z" />
      <path
         inkscape:connector-curvature="0"
         id="path7709"
         style="font-style:normal;font-variant:normal;font-weight:normal;font-stretch:normal;font-family:Insignia;-inkscape-font-specification:Insignia;fill:#f45820;fill-opacity:1"
         d="m 241.70555,734.30152 q 0,2.74147 1.02806,5.36872 1.02805,2.62724 3.02704,4.74046 1.99899,2.0561 4.85469,3.2555 2.8557,1.19939 6.33965,1.19939 3.48396,0 6.33966,-1.19939 2.8557,-1.1994 4.85469,-3.2555 1.99899,-2.11322 3.02704,-4.74046 1.02805,-2.62725 1.02805,-5.36872 0,-2.74147 -1.02805,-5.36872 -1.02805,-2.62724 -3.02704,-4.68334 -1.99899,-2.11322 -4.85469,-3.31262 -2.8557,-1.19939 -6.33966,-1.19939 -3.48395,0 -6.33965,1.19939 -2.8557,1.1994 -4.85469,3.31262 -1.99899,2.0561 -3.02704,4.68334 -1.02806,2.62725 -1.02806,5.36872 z m 6.28254,0 q 0,-3.76952 2.57013,-6.33965 2.57013,-2.62725 6.39677,-2.62725 3.88375,0 6.39677,2.62725 2.57013,2.57013 2.57013,6.33965 0,3.76952 -2.57013,6.39677 -2.51302,2.57013 -6.39677,2.57013 -3.82664,0 -6.39677,-2.57013 -2.57013,-2.62725 -2.57013,-6.39677 z" />
      <path
         inkscape:connector-curvature="0"
         id="path7711"
         style="font-style:normal;font-variant:normal;font-weight:normal;font-stretch:normal;font-family:Insignia;-inkscape-font-specification:Insignia;fill:#f45820;fill-opacity:1"
         d="m 277.6731,748.12311 5.93985,0 0,-18.27648 q 0,-1.82765 1.1994,-2.96993 1.19939,-1.19939 2.91281,-1.19939 0.45691,0 1.14228,0.22845 0.68537,0.22846 1.08517,0.57114 l 2.11321,-5.88274 q -1.31362,-0.85671 -3.25549,-0.85671 -1.77054,0 -3.2555,1.02805 -1.42785,1.02805 -2.17033,2.74147 l -0.11423,0 0,-3.02704 -5.59717,0 0,27.64318 z" />
      <path
         inkscape:connector-curvature="0"
         id="path7713"
         style="font-style:normal;font-variant:normal;font-weight:normal;font-stretch:normal;font-family:Insignia;-inkscape-font-specification:Insignia;fill:#f45820;fill-opacity:1"
         d="m 295.63277,748.12311 5.93986,0 0,-18.27648 q 0,-1.82765 1.19939,-2.96993 1.1994,-1.19939 2.91282,-1.19939 0.45691,0 1.14228,0.22845 0.68537,0.22846 1.08516,0.57114 l 2.11322,-5.88274 q -1.31362,-0.85671 -3.2555,-0.85671 -1.77053,0 -3.25549,1.02805 -1.42785,1.02805 -2.17034,2.74147 l -0.11422,0 0,-3.02704 -5.59718,0 0,27.64318 z" />
      <path
         inkscape:connector-curvature="0"
         id="path7715"
         style="font-style:normal;font-variant:normal;font-weight:normal;font-stretch:normal;font-family:Insignia;-inkscape-font-specification:Insignia;fill:#f45820;fill-opacity:1"
         d="m 313.70667,748.12311 5.93986,0 0,-27.64318 -5.93986,0 0,27.64318 z m -0.34268,-33.29746 q 0,1.37073 0.97094,2.34167 0.97094,0.97094 2.34167,0.97094 1.37074,0 2.34168,-0.97094 0.97093,-0.97094 0.97093,-2.34167 0,-1.37074 -0.97093,-2.34168 -0.97094,-0.97094 -2.34168,-0.97094 -1.37073,0 -2.34167,0.97094 -0.97094,0.97094 -0.97094,2.34168 z" />
      <path
         inkscape:connector-curvature="0"
         id="path7717"
         style="font-style:normal;font-variant:normal;font-weight:normal;font-stretch:normal;font-family:Insignia;-inkscape-font-specification:Insignia;fill:#f45820;fill-opacity:1"
         d="m 324.68595,744.0109 q 5.7114,4.85469 12.45085,4.85469 2.96993,0 5.19738,-0.7996 2.28456,-0.85671 3.71241,-2.22744 1.42785,-1.42785 2.11321,-3.02704 0.68537,-1.65631 0.68537,-3.2555 0,-5.99697 -7.31059,-7.36771 l -5.99697,-1.14228 q -3.59818,-0.62825 -3.59818,-2.91281 0,-1.59919 1.48496,-2.51302 1.54208,-0.97094 3.59818,-0.97094 1.65631,0 3.54107,0.68537 1.88476,0.68537 3.88375,2.39879 l 3.36973,-4.16932 q -2.79859,-1.99899 -5.42583,-2.91282 -2.62724,-0.91382 -5.54006,-0.91382 -4.96892,0 -7.93884,2.68436 -2.91282,2.62724 -2.91282,6.33965 0,3.14127 2.17033,5.02603 2.17034,1.82765 7.76751,2.8557 l 3.36972,0.62826 q 1.71342,0.28557 2.62725,1.08516 0.97094,0.7996 0.97094,2.11322 0,1.25651 -1.54208,2.39879 -1.54208,1.08517 -3.94087,1.08517 -2.22744,0 -4.62623,-1.14228 -2.39879,-1.14228 -4.0551,-2.91282 l -4.05509,4.11221 z" />
      <path
         inkscape:connector-curvature="0"
         id="path7719"
         style="fill:#f9fbfb;fill-opacity:1"
         d="m 353.86495,712.25552 0,25.81552 q 0,4.0551 1.99899,6.22543 1.99899,2.17033 6.96791,4.56912 l 2.62724,-4.68335 -3.19838,-1.82765 q -1.37074,-0.79959 -1.94188,-1.88476 -0.51402,-1.14228 -0.51402,-3.48395 l 0,-24.73036 -5.93986,0 z" />
      <path
         inkscape:connector-curvature="0"
         id="path7721"
         style="fill:#f9fbfb;fill-opacity:1"
         d="m 390.06185,748.12311 5.93985,0 0,-27.64318 -5.93985,0 0,3.36973 -0.11423,0 q -1.1994,-1.82765 -3.54107,-2.96993 -2.28456,-1.14228 -5.25449,-1.14228 -3.19838,0 -5.93985,1.25651 -2.74148,1.25651 -4.68335,3.42684 -1.94188,2.11322 -2.96993,4.74046 -1.02805,2.57013 -1.02805,5.14026 0,2.68436 0.97094,5.3116 0.97094,2.62725 2.8557,4.74046 1.88476,2.05611 4.56912,3.31262 2.68435,1.19939 5.93985,1.19939 2.79859,0 5.19738,-1.08517 2.4559,-1.14228 3.88375,-3.02704 l 0.11423,0 0,3.36973 z m -17.24843,-13.82159 q 0,-1.82765 0.68537,-3.42684 0.68536,-1.65631 1.88476,-2.91281 1.25651,-1.25651 2.8557,-1.94188 1.59919,-0.68537 3.36972,-0.68537 1.71342,0 3.31262,0.68537 1.59919,0.68537 2.79858,1.94188 1.1994,1.2565 1.88476,2.91281 0.68537,1.59919 0.68537,3.42684 0,1.82765 -0.68537,3.48395 -0.68536,1.5992 -1.88476,2.8557 -1.19939,1.25651 -2.79858,1.94188 -1.5992,0.68537 -3.31262,0.68537 -1.77053,0 -3.36972,-0.68537 -1.59919,-0.68537 -2.8557,-1.94188 -1.1994,-1.2565 -1.88476,-2.8557 -0.68537,-1.6563 -0.68537,-3.48395 z" />
      <path
         inkscape:connector-curvature="0"
         id="path7723"
         style="fill:#f9fbfb;fill-opacity:1"
         d="m 403.50237,748.12311 5.93986,0 0,-3.36973 0.11423,0 q 1.08516,1.77054 3.59818,2.96993 2.57013,1.14228 5.42583,1.14228 2.74147,0 5.3116,-0.97094 2.62724,-1.02805 4.62623,-2.91281 2.05611,-1.88476 3.2555,-4.56912 1.1994,-2.74147 1.1994,-6.1112 0,-3.36973 -1.1994,-6.05408 -1.19939,-2.74148 -3.2555,-4.62624 -2.0561,-1.88476 -4.62623,-2.8557 -2.57013,-1.02805 -5.3116,-1.02805 -2.8557,0 -5.42583,1.19939 -2.51302,1.14228 -3.59818,2.91282 l -0.11423,0 0,-11.59414 -5.93986,0 0,35.86759 z m 23.18829,-13.82159 q 0,3.82664 -2.45591,6.39677 -2.4559,2.57013 -6.16831,2.57013 -3.71241,0 -6.16831,-2.57013 -2.4559,-2.57013 -2.4559,-6.39677 0,-3.88375 2.4559,-6.39677 2.4559,-2.57013 6.16831,-2.57013 3.71241,0 6.16831,2.57013 2.45591,2.51302 2.45591,6.39677 z" />
    </g>
    <ellipse
       style="opacity:1;fill:none;fill-opacity:1;stroke:#f9fbfb;stroke-width:3.00000024;stroke-linecap:butt;stroke-linejoin:miter;stroke-miterlimit:4;stroke-dasharray:none;stroke-dashoffset:7.19999981;stroke-opacity:1"
       id="ellipse7690"
       cx="-240.43245"
       cy="250.923"
       rx="42.264229"
       ry="26.291132"
       inkscape:export-filename="/tmp/morrislogo.png"
       inkscape:export-xdpi="149.75468"
       inkscape:export-ydpi="149.75468" />
    <ellipse
       ry="26.291132"
       rx="42.264229"
       cy="261.90714"
       cx="-255.71281"
       id="ellipse7692"
       style="opacity:1;fill:none;fill-opacity:1;stroke:#a3cbd4;stroke-width:3.00000024;stroke-linecap:butt;stroke-linejoin:miter;stroke-miterlimit:4;stroke-dasharray:none;stroke-dashoffset:7.19999981;stroke-opacity:1"
       inkscape:export-filename="/tmp/morrislogo.png"
       inkscape:export-xdpi="149.75468"
       inkscape:export-ydpi="149.75468" />
    <ellipse
       style="opacity:1;fill:none;fill-opacity:1;stroke:#a3cbd4;stroke-width:3.00000024;stroke-linecap:butt;stroke-linejoin:miter;stroke-miterlimit:4;stroke-dasharray:none;stroke-dashoffset:7.19999981;stroke-opacity:1"
       id="ellipse7696"
       cx="-226.67531"
       cy="265.34183"
       rx="42.264229"
       ry="26.291132"
       inkscape:export-filename="/tmp/morrislogo.png"
       inkscape:export-xdpi="149.75468"
       inkscape:export-ydpi="149.75468" />
    <ellipse
       ry="26.291132"
       rx="42.264229"
       cy="256.18243"
       cx="-216.47878"
       id="ellipse7702"
       style="opacity:1;fill:none;fill-opacity:1;stroke:#f45820;stroke-width:3.00000024;stroke-linecap:butt;stroke-linejoin:miter;stroke-miterlimit:4;stroke-dasharray:none;stroke-dashoffset:7.19999981;stroke-opacity:1"
       inkscape:export-filename="/tmp/morrislogo.png"
       inkscape:export-xdpi="149.75468"
       inkscape:export-ydpi="149.75468" />
    <ellipse
       style="opacity:1;fill:none;fill-opacity:1;stroke:#f45820;stroke-width:3.00000024;stroke-linecap:butt;stroke-linejoin:miter;stroke-miterlimit:4;stroke-dasharray:none;stroke-dashoffset:7.19999981;stroke-opacity:1"
       id="ellipse7704"
       cx="-245.58592"
       cy="267.25385"
       rx="42.264229"
       ry="26.291132"
       inkscape:export-filename="/tmp/morrislogo.png"
       inkscape:export-xdpi="149.75468"
       inkscape:export-ydpi="149.75468" />
    <ellipse
       inkscape:export-ydpi="149.75468"
       inkscape:export-xdpi="149.75468"
       inkscape:export-filename="/tmp/morrislogo.png"
       ry="26.291132"
       rx="42.264229"
       cy="264.62756"
       cx="-213.46101"
       id="ellipse4280"
       style="opacity:1;fill:none;fill-opacity:1;stroke:#f9fbfb;stroke-width:3.00000024;stroke-linecap:butt;stroke-linejoin:miter;stroke-miterlimit:4;stroke-dasharray:none;stroke-dashoffset:7.19999981;stroke-opacity:1" />
    <ellipse
       inkscape:export-ydpi="149.75468"
       inkscape:export-xdpi="149.75468"
       inkscape:export-filename="/tmp/morrislogo.png"
       style="opacity:1;fill:none;fill-opacity:1;stroke:#a3cbd4;stroke-width:3.00000024;stroke-linecap:butt;stroke-linejoin:miter;stroke-miterlimit:4;stroke-dasharray:none;stroke-dashoffset:7.19999981;stroke-opacity:1"
       id="ellipse4284"
       cx="-269.64139"
       cy="261.90714"
       rx="42.264229"
       ry="26.291132" />
  </g>
</svg>
