<?xml version="1.0" encoding="utf-8"?>
<!-- Generator: Adobe Illustrator 22.0.1, SVG Export Plug-In . SVG Version: 6.00 Build 0)  -->
<svg version="1.1"
	 id="svg2" inkscape:version="0.91 r13725" sodipodi:docname="rna.svg" xmlns:cc="http://creativecommons.org/ns#" xmlns:dc="http://purl.org/dc/elements/1.1/" xmlns:inkscape="http://www.inkscape.org/namespaces/inkscape" xmlns:rdf="http://www.w3.org/1999/02/22-rdf-syntax-ns#" xmlns:sodipodi="http://sodipodi.sourceforge.net/DTD/sodipodi-0.dtd" xmlns:svg="http://www.w3.org/2000/svg"
	 xmlns="http://www.w3.org/2000/svg" xmlns:xlink="http://www.w3.org/1999/xlink" x="0px" y="0px" viewBox="0 0 115.2 115.2"
	 style="enable-background:new 0 0 115.2 115.2;" xml:space="preserve">
<style type="text/css">
	.st0{fill:#E4F2DE;}
	.st1{fill:#80D6FA;}
	.st2{fill:#FFE079;}
	.st3{fill:#51565F;}
</style>
<sodipodi:namedview  bordercolor="#666666" borderopacity="1" fit-margin-bottom="0" fit-margin-left="0" fit-margin-right="0" fit-margin-top="0" gridtolerance="10" guidetolerance="10" id="namedview28" inkscape:current-layer="svg2" inkscape:cx="122.71148" inkscape:cy="47.970718" inkscape:pageopacity="0" inkscape:pageshadow="2" inkscape:window-height="1440" inkscape:window-maximized="0" inkscape:window-width="2560" inkscape:window-x="0" inkscape:window-y="0" inkscape:zoom="4" objecttolerance="10" pagecolor="#ffffff" showgrid="false" units="in">
	</sodipodi:namedview>
<g transform="translate(1 1)">
	<path class="st0" d="M56.6,31.2c14,0,25.4,11.4,25.4,25.4S70.6,82,56.6,82S31.2,70.6,31.2,56.6S42.6,31.2,56.6,31.2"/>
	<path class="st1" d="M82,56.6c0-14-11.4-25.4-25.4-25.4c-14,0-25.4,11.4-25.4,25.4S42.6,82,56.6,82S82,70.6,82,56.6 M56.6,27.1
		c16.3,0,29.5,13.2,29.5,29.5S72.9,86.1,56.6,86.1S27.1,72.9,27.1,56.6S40.3,27.1,56.6,27.1"/>
	<g>
		<path class="st2" d="M62.7,48.2c0.6,0.9,1,2,1,3.4c0,1.3-0.4,2.4-1,3.4c-0.7,1-1.8,1.7-3.1,1.7c-1.2,0-2.3-0.7-3.1-1.7
			c-0.6-0.9-1-2-1-3.4c0-1.3,0.4-2.4,1-3.4c0.7-1,1.8-1.7,3.1-1.7C60.9,46.4,62,47.1,62.7,48.2"/>
		<path class="st2" d="M40.3,51.5c0.5,0,1,0.5,1,1c0,0.5-0.5,1-1,1c-0.5,0-1-0.5-1-1C39.3,52,39.8,51.5,40.3,51.5z M60.7,69.8
			c0.6,0,1,0.5,1,1s-0.4,1-1,1c-0.6,0-1-0.5-1-1S60.1,69.8,60.7,69.8z"/>
	</g>
</g>
<path class="st3" d="M57.6,87.6c-16.6,0-30-13.4-30-30s13.4-30,30-30s30,13.4,30,30S74.2,87.6,57.6,87.6z M57.6,28.6
	c-16,0-29,13-29,29s13,29,29,29s29-13,29-29S73.6,28.6,57.6,28.6z M57.6,83.5c-14.3,0-25.9-11.6-25.9-25.9s11.6-25.9,25.9-25.9
	s25.9,11.6,25.9,25.9c0,12.8-9.2,23.6-21.8,25.6c-0.3,0.1-0.5-0.1-0.6-0.4c0-0.3,0.1-0.5,0.4-0.6c12.1-1.9,20.9-12.3,20.9-24.6
	c0-13.7-11.2-24.9-24.9-24.9S32.7,43.9,32.7,57.6s11.2,24.9,24.9,24.9c0.3,0,0.5,0.2,0.5,0.5C58.1,83.3,57.9,83.5,57.6,83.5z
	 M61.7,73.4c-0.8,0-1.5-0.7-1.5-1.5s0.7-1.5,1.5-1.5s1.5,0.7,1.5,1.5S62.5,73.4,61.7,73.4z M61.7,71.3c-0.3,0-0.5,0.2-0.5,0.5
	s0.2,0.5,0.5,0.5s0.5-0.2,0.5-0.5C62.2,71.5,62,71.3,61.7,71.3z M48.2,70.3c-0.1,0-0.1,0-0.2,0c-0.3-0.1-0.4-0.4-0.3-0.6
	c0,0,0.6-1.9-0.6-3.1C46.5,66,46,66,45.3,66s-1.6,0-2.5-0.9c-1.6-1.6-0.9-4-0.8-4.1c0.1-0.3,0.4-0.4,0.6-0.3
	c0.3,0.1,0.4,0.4,0.3,0.6c0,0-0.6,1.9,0.6,3.1c0.6,0.6,1.1,0.6,1.8,0.6s1.6,0,2.5,0.9c1.6,1.6,0.9,4,0.8,4.1
	C48.7,70.2,48.4,70.3,48.2,70.3z M69,66.2c-0.8,0-1.4-0.2-1.4-0.2c-0.3-0.1-0.4-0.4-0.3-0.6c0.1-0.3,0.4-0.4,0.6-0.3
	c0,0,1.9,0.6,3.1-0.6c0.6-0.6,0.6-1.1,0.6-1.8c0-0.7,0-1.6,0.9-2.5c1.6-1.6,4-0.9,4.1-0.8c0.3,0.1,0.4,0.4,0.3,0.6
	c-0.1,0.3-0.4,0.4-0.6,0.3c0,0-1.9-0.6-3.1,0.6c-0.6,0.6-0.6,1.1-0.6,1.8c0,0.7,0,1.6-0.9,2.5C70.9,66,69.8,66.2,69,66.2z
	 M60.7,60.1c-0.3,0-0.5-0.2-0.5-0.5v-1.5c-1-0.1-1.9-0.7-2.6-1.4l-1.6,1.4c-0.2,0.2-0.5,0.2-0.7-0.1c-0.1-0.1-0.1-0.2-0.1-0.3
	s0.1-0.3,0.2-0.4l1.7-1.4c-0.5-0.8-0.8-1.7-0.8-2.7h-1.5c-0.3,0-0.5-0.2-0.5-0.5s0.2-0.5,0.5-0.5h1.5c0.1-1,0.4-1.9,0.8-2.7
	l-1.7-1.4c-0.1-0.1-0.2-0.2-0.2-0.4c0-0.1,0-0.2,0.1-0.3c0.2-0.2,0.5-0.2,0.7-0.1l1.6,1.4c0.7-0.8,1.6-1.3,2.6-1.4v-1.7
	c0-0.3,0.2-0.5,0.5-0.5c0.3,0,0.5,0.2,0.5,0.5v1.5c1,0.1,1.9,0.7,2.6,1.4l1.6-1.4c0.2-0.2,0.5-0.2,0.7,0.1c0.1,0.1,0.1,0.2,0.1,0.3
	s-0.1,0.3-0.2,0.4l-1.7,1.4c0.5,0.8,0.8,1.7,0.8,2.7h1.5c0.3,0,0.5,0.2,0.5,0.5s-0.2,0.5-0.5,0.5h-1.5c-0.1,1-0.4,1.9-0.8,2.7
	l1.7,1.4c0.1,0.1,0.2,0.2,0.2,0.4c0,0.1,0,0.2-0.1,0.3c-0.2,0.2-0.5,0.2-0.7,0.1l-1.6-1.4c-0.7,0.8-1.6,1.3-2.6,1.4v1.5
	C61.2,59.9,61,60.1,60.7,60.1z M58,55.7c0.6,0.9,1.6,1.4,2.6,1.4c1,0,1.9-0.6,2.6-1.4c0,0,0,0,0.1-0.1c0.5-0.8,0.9-1.8,0.9-3.1
	c0-1.2-0.3-2.2-0.9-3.1c0,0,0,0-0.1-0.1c-0.6-0.9-1.6-1.4-2.6-1.4c-1,0-1.9,0.6-2.6,1.4c0,0,0,0-0.1,0.1c-0.5,0.8-0.9,1.8-0.9,3.1
	C57,53.7,57.4,54.8,58,55.7C58,55.6,58,55.6,58,55.7z M41.3,55.1c-0.8,0-1.5-0.7-1.5-1.5s0.7-1.5,1.5-1.5c0.8,0,1.5,0.7,1.5,1.5
	S42.1,55.1,41.3,55.1z M41.3,53c-0.3,0-0.5,0.2-0.5,0.5S41,54,41.3,54s0.5-0.2,0.5-0.5S41.6,53,41.3,53z"/>
</svg>
