<?xml version="1.0" encoding="utf-8"?>
<!-- Generator: Adobe Illustrator 22.0.1, SVG Export Plug-In . SVG Version: 6.00 Build 0)  -->
<svg version="1.1"
	 id="svg2" inkscape:version="0.91 r13725" sodipodi:docname="rna.svg" xmlns:cc="http://creativecommons.org/ns#" xmlns:dc="http://purl.org/dc/elements/1.1/" xmlns:inkscape="http://www.inkscape.org/namespaces/inkscape" xmlns:rdf="http://www.w3.org/1999/02/22-rdf-syntax-ns#" xmlns:sodipodi="http://sodipodi.sourceforge.net/DTD/sodipodi-0.dtd" xmlns:svg="http://www.w3.org/2000/svg"
	 xmlns="http://www.w3.org/2000/svg" xmlns:xlink="http://www.w3.org/1999/xlink" x="0px" y="0px" viewBox="0 0 115.2 115.2"
	 style="enable-background:new 0 0 115.2 115.2;" xml:space="preserve">
<style type="text/css">
	.st0{fill:none;stroke:#8A034F;stroke-width:3.469;stroke-linecap:round;stroke-miterlimit:10;}
	.st1{fill:none;stroke:#00A9CC;stroke-width:3.469;stroke-linecap:round;stroke-miterlimit:10;}
	.st2{fill:none;stroke:#00A9CC;stroke-width:3.469;stroke-miterlimit:10;}
	.st3{fill:none;stroke:#231F20;stroke-width:3.615;stroke-linecap:round;stroke-miterlimit:10;}
	.st4{fill:none;stroke:#231F20;stroke-width:3.469;stroke-miterlimit:10;}
	.st5{fill:none;stroke:#231F20;stroke-width:3.469;stroke-linecap:round;stroke-miterlimit:10;}
	.st6{fill:none;stroke:#00A9CC;stroke-width:1.735;}
</style>
<sodipodi:namedview  bordercolor="#666666" borderopacity="1" fit-margin-bottom="0" fit-margin-left="0" fit-margin-right="0" fit-margin-top="0" gridtolerance="10" guidetolerance="10" id="namedview28" inkscape:current-layer="svg2" inkscape:cx="122.71148" inkscape:cy="47.970718" inkscape:pageopacity="0" inkscape:pageshadow="2" inkscape:window-height="1440" inkscape:window-maximized="0" inkscape:window-width="2560" inkscape:window-x="0" inkscape:window-y="0" inkscape:zoom="4" objecttolerance="10" pagecolor="#ffffff" showgrid="false" units="in">
	</sodipodi:namedview>
<path class="st0" d="M25.6,99"/>
<path class="st1" d="M38.5,114.2"/>
<path class="st2" d="M82.8,40"/>
<path class="st2" d="M38,98.9"/>
<path class="st3" d="M77.3,40.4c3.3,0.3,6.6-0.1,9.7-1.2"/>
<path class="st3" d="M42.1,85c1.8-5.2,1.8-11.1-0.5-16.4c-3.5-8.4-1.5-18.4,4.9-24.9c4.9-5,11.8-7.4,18.4-6.6"/>
<path class="st3" d="M48.4,70.3c6.4,0.5,13-1.9,17.7-6.7c6.3-6.5,8.4-16.5,4.9-24.9c-2.2-5.3-2.3-11.2-0.5-16.4"/>
<path class="st3" d="M25.6,68.1c3.3-1.2,6.8-1.6,10.3-1.1"/>
<line class="st3" x1="58.3" y1="37.7" x2="71.9" y2="51.7"/>
<path class="st4" d="M69.5,25.5l14.4,14.7 M28.7,67.1l14.4,14.7"/>
<line class="st5" x1="50.4" y1="41.8" x2="68.4" y2="60.2"/>
<path class="st4" d="M40.2,55.1l14.8,15.1 M44,46.8l19,19.4"/>
<path class="st6" d="M84.4,47.9"/>
<path class="st6" d="M84.4,57.4"/>
</svg>
