<?xml version="1.0" encoding="utf-8"?>
<!-- Generator: Adobe Illustrator 22.0.1, SVG Export Plug-In . SVG Version: 6.00 Build 0)  -->
<svg version="1.1"
	 id="svg2" inkscape:version="0.91 r13725" sodipodi:docname="rna.svg" xmlns:cc="http://creativecommons.org/ns#" xmlns:dc="http://purl.org/dc/elements/1.1/" xmlns:inkscape="http://www.inkscape.org/namespaces/inkscape" xmlns:rdf="http://www.w3.org/1999/02/22-rdf-syntax-ns#" xmlns:sodipodi="http://sodipodi.sourceforge.net/DTD/sodipodi-0.dtd" xmlns:svg="http://www.w3.org/2000/svg"
	 xmlns="http://www.w3.org/2000/svg" xmlns:xlink="http://www.w3.org/1999/xlink" x="0px" y="0px" viewBox="0 0 115.2 115.2"
	 style="enable-background:new 0 0 115.2 115.2;" xml:space="preserve">
<style type="text/css">
	.st0{fill:#6CBE45;}
	.st1{fill:#FFFFFF;}
	.st2{fill:none;stroke:#FFFFFF;stroke-width:1.5;stroke-linecap:round;}
</style>
<sodipodi:namedview  bordercolor="#666666" borderopacity="1" fit-margin-bottom="0" fit-margin-left="0" fit-margin-right="0" fit-margin-top="0" gridtolerance="10" guidetolerance="10" id="namedview28" inkscape:current-layer="svg2" inkscape:cx="122.71148" inkscape:cy="47.970718" inkscape:pageopacity="0" inkscape:pageshadow="2" inkscape:window-height="1440" inkscape:window-maximized="0" inkscape:window-width="2560" inkscape:window-x="0" inkscape:window-y="0" inkscape:zoom="4" objecttolerance="10" pagecolor="#ffffff" showgrid="false" units="in">
	</sodipodi:namedview>
<circle id="path4147" class="st0" cx="57.6" cy="57.6" r="57.6"/>
<g id="g4151" transform="matrix(3.9458649,0,0,3.9458649,-42.916256,-58.08164)">
	<g id="g4" transform="matrix(0.46323572,0,0,0.62919545,17.539333,17.573161)">
		<g id="g6">
		</g>
		<path id="path12" inkscape:connector-curvature="0" class="st1" d="M27.7,2.7H5c-0.4,0-0.8-0.4-0.8-0.8S4.5,1.1,5,1.1h22.7
			c0.4,0,0.8,0.4,0.8,0.8S28.1,2.7,27.7,2.7z"/>
		<path id="path14" inkscape:connector-curvature="0" class="st1" d="M26.4,7.3H6.3C5.8,7.3,5.5,7,5.5,6.5s0.4-0.8,0.8-0.8h20.1
			c0.4,0,0.8,0.4,0.8,0.8S26.8,7.3,26.4,7.3z"/>
		<path id="path16" inkscape:connector-curvature="0" class="st1" d="M24,12H8.6c-0.4,0-0.8-0.4-0.8-0.8c0-0.4,0.4-0.8,0.8-0.8H24
			c0.4,0,0.8,0.4,0.8,0.8C24.8,11.6,24.5,12,24,12z"/>
		<path id="path18" inkscape:connector-curvature="0" class="st1" d="M27.7,35.5H5c-0.4,0-0.8-0.4-0.8-0.8s0.4-0.8,0.8-0.8h22.7
			c0.4,0,0.8,0.4,0.8,0.8S28.1,35.5,27.7,35.5z"/>
		<path id="path20" inkscape:connector-curvature="0" class="st1" d="M28.1,30.8H5.4c-0.4,0-0.8-0.4-0.8-0.8s0.4-0.8,0.8-0.8h22.7
			c0.4,0,0.8,0.4,0.8,0.8S28.6,30.8,28.1,30.8z"/>
		<path id="path22" inkscape:connector-curvature="0" class="st1" d="M25.2,26.2H7.4c-0.4,0-0.8-0.4-0.8-0.8s0.4-0.8,0.8-0.8h17.8
			c0.4,0,0.8,0.4,0.8,0.8S25.6,26.2,25.2,26.2z"/>
	</g>
	<path id="path4716" inkscape:connector-curvature="0" class="st2" d="M31,17.7c0,0-0.8,8.2-6.5,12.2s-4.3,11-4.3,11"/>
</g>
</svg>
