<?xml version="1.0" encoding="utf-8"?>
<!-- Generator: Adobe Illustrator 22.0.1, SVG Export Plug-In . SVG Version: 6.00 Build 0)  -->
<svg version="1.1"
	 id="svg2" inkscape:version="0.91 r13725" sodipodi:docname="rna.svg" xmlns:cc="http://creativecommons.org/ns#" xmlns:dc="http://purl.org/dc/elements/1.1/" xmlns:inkscape="http://www.inkscape.org/namespaces/inkscape" xmlns:rdf="http://www.w3.org/1999/02/22-rdf-syntax-ns#" xmlns:sodipodi="http://sodipodi.sourceforge.net/DTD/sodipodi-0.dtd" xmlns:svg="http://www.w3.org/2000/svg"
	 xmlns="http://www.w3.org/2000/svg" xmlns:xlink="http://www.w3.org/1999/xlink" x="0px" y="0px" viewBox="0 0 115.2 115.2"
	 style="enable-background:new 0 0 115.2 115.2;" xml:space="preserve">
<style type="text/css">
	.st0{fill:none;stroke:#8A034F;stroke-width:3.469;stroke-linecap:round;stroke-miterlimit:10;}
	.st1{fill:none;stroke:#00A9CC;stroke-width:3.469;stroke-linecap:round;stroke-miterlimit:10;}
	.st2{fill:none;stroke:#00A9CC;stroke-width:3.469;stroke-miterlimit:10;}
	.st3{fill:none;stroke:#231F20;stroke-width:3.615;stroke-linecap:round;stroke-miterlimit:10;}
	.st4{fill:none;stroke:#231F20;stroke-width:3.469;stroke-miterlimit:10;}
	.st5{fill:none;stroke:#231F20;stroke-width:3.469;stroke-linecap:round;stroke-miterlimit:10;}
	.st6{fill:none;stroke:#00A9CC;stroke-width:1.735;}
</style>
<sodipodi:namedview  bordercolor="#666666" borderopacity="1" fit-margin-bottom="0" fit-margin-left="0" fit-margin-right="0" fit-margin-top="0" gridtolerance="10" guidetolerance="10" id="namedview28" inkscape:current-layer="svg2" inkscape:cx="122.71148" inkscape:cy="47.970718" inkscape:pageopacity="0" inkscape:pageshadow="2" inkscape:window-height="1440" inkscape:window-maximized="0" inkscape:window-width="2560" inkscape:window-x="0" inkscape:window-y="0" inkscape:zoom="4" objecttolerance="10" pagecolor="#ffffff" showgrid="false" units="in">
	</sodipodi:namedview>
<path class="st0" d="M25.6,99"/>
<path class="st1" d="M38.5,114.2"/>
<path class="st2" d="M94,41.1"/>
<path class="st2" d="M38,98.9"/>
<path class="st3" d="M87,41.6c4.2,0.4,8.4-0.1,12.3-1.5"/>
<path class="st3" d="M42.1,97.4c2.4-6.5,2.3-13.9-0.6-20.5c-4.5-10.5-1.9-23,6.2-31.1c6.2-6.2,15-9.2,23.5-8.2"/>
<path class="st3" d="M50.1,79c8.2,0.6,16.6-2.4,22.5-8.3c8.1-8.1,10.7-20.6,6.2-31.1c-2.9-6.6-3-14-0.6-20.5"/>
<path class="st3" d="M21.1,76.2c4.2-1.5,8.7-2,13.1-1.4"/>
<line class="st3" x1="62.7" y1="38.3" x2="80.1" y2="55.7"/>
<path class="st4" d="M77,23l18.4,18.4 M25,75l18.4,18.4"/>
<line class="st5" x1="52.7" y1="43.4" x2="75.6" y2="66.3"/>
<path class="st4" d="M39.6,59.9l18.8,18.8 M44.5,49.6l24.2,24.2"/>
<path class="st6" d="M96,51"/>
<path class="st6" d="M96,62.8"/>
</svg>
