<?xml version="1.0" encoding="utf-8"?>
<!-- Generator: Adobe Illustrator 22.0.1, SVG Export Plug-In . SVG Version: 6.00 Build 0)  -->
<svg version="1.1"
	 id="svg2" inkscape:version="0.91 r13725" sodipodi:docname="rna.svg" xmlns:cc="http://creativecommons.org/ns#" xmlns:dc="http://purl.org/dc/elements/1.1/" xmlns:inkscape="http://www.inkscape.org/namespaces/inkscape" xmlns:rdf="http://www.w3.org/1999/02/22-rdf-syntax-ns#" xmlns:sodipodi="http://sodipodi.sourceforge.net/DTD/sodipodi-0.dtd" xmlns:svg="http://www.w3.org/2000/svg"
	 xmlns="http://www.w3.org/2000/svg" xmlns:xlink="http://www.w3.org/1999/xlink" x="0px" y="0px" viewBox="0 0 115.2 115.2"
	 style="enable-background:new 0 0 115.2 115.2;" xml:space="preserve">
<style type="text/css">
	.st0{fill:none;stroke:#231F20;stroke-width:3.469;stroke-linecap:round;stroke-linejoin:round;stroke-miterlimit:10;}
</style>
<sodipodi:namedview  bordercolor="#666666" borderopacity="1" fit-margin-bottom="0" fit-margin-left="0" fit-margin-right="0" fit-margin-top="0" gridtolerance="10" guidetolerance="10" id="namedview28" inkscape:current-layer="svg2" inkscape:cx="122.71148" inkscape:cy="47.970718" inkscape:pageopacity="0" inkscape:pageshadow="2" inkscape:window-height="1440" inkscape:window-maximized="0" inkscape:window-width="2560" inkscape:window-x="0" inkscape:window-y="0" inkscape:zoom="4" objecttolerance="10" pagecolor="#ffffff" showgrid="false" units="in">
	</sodipodi:namedview>
<line class="st0" x1="79.4" y1="44.7" x2="79.4" y2="51.9"/>
<line class="st0" x1="71.9" y1="41.1" x2="71.9" y2="51.9"/>
<line class="st0" x1="64.3" y1="37.5" x2="64.3" y2="51.9"/>
<line class="st0" x1="56.8" y1="42.9" x2="56.8" y2="51.9"/>
<line class="st0" x1="49.3" y1="46.5" x2="49.3" y2="51.9"/>
<line class="st0" x1="41.8" y1="35.7" x2="41.8" y2="51.9"/>
<line class="st0" x1="34.3" y1="41.1" x2="34.3" y2="51.9"/>
<path class="st0" d="M66.2,68.2v3.6H47.5v-3.6H13.7v7.2c0,2,1.7,3.6,3.7,3.6h78.8c2.1,0,3.8-1.6,3.8-3.6v-7.2H66.2z"/>
<path class="st0" d="M17.4,68.1V23c0-3,2.5-5.4,5.6-5.4h67.6c3.1,0,5.6,2.4,5.6,5.4v45.2"/>
<polygon class="st0" points="88.7,60.9 56.8,60.9 24.9,60.9 24.9,24.8 88.7,24.8 "/>
</svg>
