<?xml version="1.0" encoding="utf-8"?>
<!-- Generator: Adobe Illustrator 22.0.1, SVG Export Plug-In . SVG Version: 6.00 Build 0)  -->
<svg version="1.1"
	 id="svg2" inkscape:version="0.91 r13725" sodipodi:docname="rna.svg" xmlns:cc="http://creativecommons.org/ns#" xmlns:dc="http://purl.org/dc/elements/1.1/" xmlns:inkscape="http://www.inkscape.org/namespaces/inkscape" xmlns:rdf="http://www.w3.org/1999/02/22-rdf-syntax-ns#" xmlns:sodipodi="http://sodipodi.sourceforge.net/DTD/sodipodi-0.dtd" xmlns:svg="http://www.w3.org/2000/svg"
	 xmlns="http://www.w3.org/2000/svg" xmlns:xlink="http://www.w3.org/1999/xlink" x="0px" y="0px" viewBox="0 0 115.2 115.2"
	 style="enable-background:new 0 0 115.2 115.2;" xml:space="preserve">
<style type="text/css">
	.st0{fill:#F56E92;}
	.st1{fill:#FCCFDB;}
	.st2{fill:#F99FB6;}
	.st3{fill:#FF9E46;}
	.st4{fill:#FF7226;}
	.st5{fill:#F23E6D;}
</style>
<sodipodi:namedview  bordercolor="#666666" borderopacity="1" fit-margin-bottom="0" fit-margin-left="0" fit-margin-right="0" fit-margin-top="0" gridtolerance="10" guidetolerance="10" id="namedview28" inkscape:current-layer="svg2" inkscape:cx="122.71148" inkscape:cy="47.970718" inkscape:pageopacity="0" inkscape:pageshadow="2" inkscape:window-height="1440" inkscape:window-maximized="0" inkscape:window-width="2560" inkscape:window-x="0" inkscape:window-y="0" inkscape:zoom="4" objecttolerance="10" pagecolor="#ffffff" showgrid="false" units="in">
	</sodipodi:namedview>
<circle class="st0" cx="57.6" cy="57.6" r="30"/>
<circle class="st1" cx="57.6" cy="57.6" r="26"/>
<g>
	<circle class="st2" cx="53.6" cy="77.4" r="1"/>
	<circle class="st2" cx="51.3" cy="38.5" r="1"/>
</g>
<circle class="st3" cx="57.6" cy="40.6" r="2.6"/>
<g>
	<path class="st4" d="M47.4,74c-0.5,0-1.1-0.2-1.6-0.5c-1.5-1.2-2.9-2.5-4.1-4.1c-0.9-1.2-0.6-2.8,0.5-3.7c1.2-0.9,2.8-0.6,3.7,0.5
		c0.8,1.1,1.9,2.1,3,3c1.2,0.9,1.4,2.5,0.5,3.7C49,73.6,48.2,74,47.4,74z"/>
	<path class="st4" d="M76.9,58.3c0.3,0.5,0.4,1,0.3,1.6c-0.2,1.9-0.7,3.8-1.5,5.6c-0.6,1.3-2.1,2-3.5,1.4c-1.3-0.6-2-2.1-1.4-3.5
		c0.6-1.3,0.9-2.7,1.1-4.1c0.2-1.4,1.5-2.5,2.9-2.3C75.8,57.1,76.5,57.6,76.9,58.3z"/>
	<path class="st4" d="M67.8,41.2c0.5,0,1.1,0.2,1.6,0.5c1.5,1.2,2.9,2.5,4.1,4.1c0.9,1.2,0.6,2.8-0.5,3.7c-1.2,0.9-2.8,0.6-3.7-0.5
		c-0.8-1.1-1.9-2.1-3-3c-1.2-0.9-1.4-2.5-0.5-3.7C66.2,41.6,67,41.2,67.8,41.2z"/>
</g>
<g>
	<path class="st0" d="M65.2,70.7c-2.3,1.3-4.9,2-7.6,2c-0.5,0-1,0.4-1,1s0.4,1,1,1c3,0,6-0.8,8.6-2.3c0.5-0.3,0.6-0.9,0.4-1.4
		C66.3,70.6,65.7,70.5,65.2,70.7z"/>
	<path class="st0" d="M50,44.5c0.5-0.3,0.6-0.9,0.4-1.4c-0.3-0.5-0.9-0.6-1.4-0.4c-5.3,3.1-8.6,8.7-8.6,14.8c0,0.5,0.4,1,1,1
		c0.5,0,1-0.4,1-1C42.4,52.2,45.3,47.2,50,44.5z"/>
	<path class="st0" d="M44.1,42.7c-0.4-0.4-1-0.4-1.4,0c-2.6,2.6-4.5,5.9-5.5,9.5c-0.1,0.5,0.2,1.1,0.7,1.2c0.1,0,0.2,0,0.3,0
		c0.4,0,0.8-0.3,1-0.7c0.9-3.2,2.6-6.2,5-8.6C44.5,43.7,44.5,43.1,44.1,42.7z"/>
	<path class="st0" d="M49.7,49.7c0.4-0.4,0.4-1,0-1.4c-0.4-0.4-1-0.4-1.4,0c-2.5,2.5-3.9,5.8-3.9,9.3c0,0.5,0.4,1,1,1s1-0.4,1-1
		c0-1.1,0.2-2.3,0.5-3.3l4,1.7l0.8-1.8l-4-1.7C48.2,51.4,48.8,50.5,49.7,49.7z"/>
	<path class="st0" d="M66.9,65.5c-0.4-0.4-1-0.4-1.4,0c-0.5,0.5-1,0.9-1.5,1.2L61.3,62l-1.7,1l2.8,4.8c-0.6,0.3-1.2,0.5-1.8,0.7
		c-0.5,0.1-0.8,0.7-0.7,1.2c0.1,0.4,0.5,0.7,1,0.7c0.1,0,0.2,0,0.3,0c2.2-0.6,4.3-1.8,5.9-3.4C67.3,66.5,67.3,65.9,66.9,65.5z"/>
</g>
<circle class="st5" cx="57.6" cy="57.6" r="8.2"/>
</svg>
