<?xml version="1.0" encoding="utf-8"?>
<!-- Generator: Adobe Illustrator 22.0.1, SVG Export Plug-In . SVG Version: 6.00 Build 0)  -->
<svg version="1.1"
	 id="svg2" inkscape:version="0.91 r13725" sodipodi:docname="rna.svg" xmlns:cc="http://creativecommons.org/ns#" xmlns:dc="http://purl.org/dc/elements/1.1/" xmlns:inkscape="http://www.inkscape.org/namespaces/inkscape" xmlns:rdf="http://www.w3.org/1999/02/22-rdf-syntax-ns#" xmlns:sodipodi="http://sodipodi.sourceforge.net/DTD/sodipodi-0.dtd" xmlns:svg="http://www.w3.org/2000/svg"
	 xmlns="http://www.w3.org/2000/svg" xmlns:xlink="http://www.w3.org/1999/xlink" x="0px" y="0px" viewBox="0 0 115.2 115.2"
	 style="enable-background:new 0 0 115.2 115.2;" xml:space="preserve">
<style type="text/css">
	.st0{fill:none;stroke:#8A034F;stroke-width:4.046;stroke-linecap:round;stroke-linejoin:round;stroke-miterlimit:10;}
</style>
<sodipodi:namedview  bordercolor="#666666" borderopacity="1" fit-margin-bottom="0" fit-margin-left="0" fit-margin-right="0" fit-margin-top="0" gridtolerance="10" guidetolerance="10" id="namedview28" inkscape:current-layer="svg2" inkscape:cx="122.71148" inkscape:cy="47.970718" inkscape:pageopacity="0" inkscape:pageshadow="2" inkscape:window-height="1440" inkscape:window-maximized="0" inkscape:window-width="2560" inkscape:window-x="0" inkscape:window-y="0" inkscape:zoom="4" objecttolerance="10" pagecolor="#ffffff" showgrid="false" units="in">
	</sodipodi:namedview>
<path class="st0" d="M70.7,53.7v4.9 M65.9,51.3v7.3 M61,48.8v9.7 M56.2,52.5v6.1 M51.3,54.9v3.6 M46.4,47.6v10.9 M41.6,51.3v7.3
	 M62.2,69.5v2.4H50.1v-2.4H28.2v4.9c0,1.3,1.1,2.4,2.4,2.4h51.1c1.3,0,2.4-1.1,2.4-2.4v-4.9H62.2z M30.6,69.5V39.1
	c0-2,1.6-3.6,3.6-3.6H78c2,0,3.6,1.6,3.6,3.6v30.4 M76.8,64.6H56.2H35.5V40.3h41.4V64.6z"/>
</svg>
