<?xml version="1.0" encoding="utf-8"?>
<!-- Generator: Adobe Illustrator 22.0.1, SVG Export Plug-In . SVG Version: 6.00 Build 0)  -->
<svg version="1.1"
	 id="svg2" inkscape:version="0.91 r13725" sodipodi:docname="rna.svg" xmlns:cc="http://creativecommons.org/ns#" xmlns:dc="http://purl.org/dc/elements/1.1/" xmlns:inkscape="http://www.inkscape.org/namespaces/inkscape" xmlns:rdf="http://www.w3.org/1999/02/22-rdf-syntax-ns#" xmlns:sodipodi="http://sodipodi.sourceforge.net/DTD/sodipodi-0.dtd" xmlns:svg="http://www.w3.org/2000/svg"
	 xmlns="http://www.w3.org/2000/svg" xmlns:xlink="http://www.w3.org/1999/xlink" x="0px" y="0px" viewBox="0 0 115.2 115.2"
	 style="enable-background:new 0 0 115.2 115.2;" xml:space="preserve">
<style type="text/css">
	.st0{fill:none;stroke:#231F20;stroke-width:3.469;stroke-linecap:round;stroke-linejoin:round;stroke-miterlimit:10;}
</style>
<sodipodi:namedview  bordercolor="#666666" borderopacity="1" fit-margin-bottom="0" fit-margin-left="0" fit-margin-right="0" fit-margin-top="0" gridtolerance="10" guidetolerance="10" id="namedview28" inkscape:current-layer="svg2" inkscape:cx="122.71148" inkscape:cy="47.970718" inkscape:pageopacity="0" inkscape:pageshadow="2" inkscape:window-height="1440" inkscape:window-maximized="0" inkscape:window-width="2560" inkscape:window-x="0" inkscape:window-y="0" inkscape:zoom="4" objecttolerance="10" pagecolor="#ffffff" showgrid="false" units="in">
	</sodipodi:namedview>
<line class="st0" x1="74.4" y1="57.1" x2="74.4" y2="62.2"/>
<line class="st0" x1="69.1" y1="54.6" x2="69.1" y2="62.2"/>
<line class="st0" x1="63.8" y1="52" x2="63.8" y2="62.2"/>
<line class="st0" x1="58.5" y1="55.9" x2="58.5" y2="62.2"/>
<line class="st0" x1="53.2" y1="58.4" x2="53.2" y2="62.2"/>
<line class="st0" x1="47.9" y1="50.8" x2="47.9" y2="62.2"/>
<line class="st0" x1="42.6" y1="54.6" x2="42.6" y2="62.2"/>
<path class="st0" d="M65.1,75L65.1,75c0,0.7-0.6,1.3-1.3,1.3H53.1c-0.7,0-1.3-0.6-1.3-1.3l0,0c0-0.7-0.6-1.3-1.3-1.3H29.3
	c-0.7,0-1.3,0.6-1.3,1.3v3.8c0,1.4,1.2,2.5,2.6,2.5h55.6c1.5,0,2.6-1.1,2.6-2.5v-1.3c0-2.1-1.7-3.8-3.8-3.8H66.4
	C65.7,73.7,65.1,74.3,65.1,75z"/>
<path class="st0" d="M30.7,73.7V41.8c0-2.1,1.8-3.8,4-3.8h47.7c2.2,0,4,1.7,4,3.8v31.9"/>
<path class="st0" d="M81,64.8c0,2.1-1.7,3.8-3.8,3.8H58.5H39.8c-2.1,0-3.8-1.7-3.8-3.8V46.9c0-2.1,1.7-3.8,3.8-3.8h37.4
	c2.1,0,3.8,1.7,3.8,3.8V64.8z"/>
</svg>
