<?xml version="1.0" encoding="utf-8"?>
<!-- Generator: Adobe Illustrator 22.0.1, SVG Export Plug-In . SVG Version: 6.00 Build 0)  -->
<svg version="1.1"
	 id="svg2" inkscape:version="0.91 r13725" sodipodi:docname="rna.svg" xmlns:cc="http://creativecommons.org/ns#" xmlns:dc="http://purl.org/dc/elements/1.1/" xmlns:inkscape="http://www.inkscape.org/namespaces/inkscape" xmlns:rdf="http://www.w3.org/1999/02/22-rdf-syntax-ns#" xmlns:sodipodi="http://sodipodi.sourceforge.net/DTD/sodipodi-0.dtd" xmlns:svg="http://www.w3.org/2000/svg"
	 xmlns="http://www.w3.org/2000/svg" xmlns:xlink="http://www.w3.org/1999/xlink" x="0px" y="0px" viewBox="0 0 115.2 115.2"
	 style="enable-background:new 0 0 115.2 115.2;" xml:space="preserve">
<style type="text/css">
	.st0{fill:none;stroke:#1D1D1B;stroke-width:4.046;stroke-linecap:round;stroke-linejoin:round;stroke-miterlimit:10;}
</style>
<sodipodi:namedview  bordercolor="#666666" borderopacity="1" fit-margin-bottom="0" fit-margin-left="0" fit-margin-right="0" fit-margin-top="0" gridtolerance="10" guidetolerance="10" id="namedview28" inkscape:current-layer="svg2" inkscape:cx="122.71148" inkscape:cy="47.970718" inkscape:pageopacity="0" inkscape:pageshadow="2" inkscape:window-height="1440" inkscape:window-maximized="0" inkscape:window-width="2560" inkscape:window-x="0" inkscape:window-y="0" inkscape:zoom="4" objecttolerance="10" pagecolor="#ffffff" showgrid="false" units="in">
	</sodipodi:namedview>
<path class="st0" d="M78.6,52.7h4.9 M61.5,52.7h3.6 M44.5,52.7h4.9 M27.5,52.7h4.9 M78.6,63.7c0,3.4-2.7,6.1-6.1,6.1
	s-6.1-2.7-6.1-6.1v-28h12.2V63.7z M61.5,63.7c0,3.4-2.7,6.1-6.1,6.1c-3.4,0-6.1-2.7-6.1-6.1v-28h12.2V63.7z M44.5,63.7
	c0,3.4-2.7,6.1-6.1,6.1s-6.1-2.7-6.1-6.1v-28h12.2L44.5,63.7L44.5,63.7z M27.5,45.4v24.3c0,5.4,4.4,9.7,9.7,9.7h36.5
	c5.4,0,9.7-4.4,9.7-9.7V45.4"/>
<path class="st0" d="M66.4,63.7h12.2 M49.4,63.7h12.2 M32.3,63.7h12.2"/>
<path class="st0" d="M66.3,57.6h12 M49.4,57.6h12 M32.6,57.6h12"/>
</svg>
