<?xml version="1.0" encoding="utf-8"?>
<!-- Generator: Adobe Illustrator 22.0.1, SVG Export Plug-In . SVG Version: 6.00 Build 0)  -->
<svg version="1.1"
	 id="svg2" inkscape:version="0.91 r13725" sodipodi:docname="rna.svg" xmlns:cc="http://creativecommons.org/ns#" xmlns:dc="http://purl.org/dc/elements/1.1/" xmlns:inkscape="http://www.inkscape.org/namespaces/inkscape" xmlns:rdf="http://www.w3.org/1999/02/22-rdf-syntax-ns#" xmlns:sodipodi="http://sodipodi.sourceforge.net/DTD/sodipodi-0.dtd" xmlns:svg="http://www.w3.org/2000/svg"
	 xmlns="http://www.w3.org/2000/svg" xmlns:xlink="http://www.w3.org/1999/xlink" x="0px" y="0px" viewBox="0 0 115.2 115.2"
	 style="enable-background:new 0 0 115.2 115.2;" xml:space="preserve">
<style type="text/css">
	.st0{fill:#FFFFFF;}
	.st1{fill:none;stroke:#FFFFFF;stroke-width:1.5;stroke-linecap:round;}
	.st2{fill:#6A82A1;}
	.st3{fill:#2C3E50;}
	.st4{fill:#03B39C;}
	.st5{fill:#42AB48;}
	.st6{fill:#FFDA79;}
	.st7{fill:#FFD155;}
	.st8{fill:#FFC72D;}
</style>
<sodipodi:namedview  bordercolor="#666666" borderopacity="1" fit-margin-bottom="0" fit-margin-left="0" fit-margin-right="0" fit-margin-top="0" gridtolerance="10" guidetolerance="10" id="namedview28" inkscape:current-layer="svg2" inkscape:cx="122.71148" inkscape:cy="47.970718" inkscape:pageopacity="0" inkscape:pageshadow="2" inkscape:window-height="1440" inkscape:window-maximized="0" inkscape:window-width="2560" inkscape:window-x="0" inkscape:window-y="0" inkscape:zoom="4" objecttolerance="10" pagecolor="#ffffff" showgrid="false" units="in">
	</sodipodi:namedview>
<g id="g4151" transform="matrix(3.9458649,0,0,3.9458649,-42.916256,-58.08164)">
	<g id="g4" transform="matrix(0.46323572,0,0,0.62919545,17.539333,17.573161)">
		<g id="g6">
		</g>
		<path id="path12" inkscape:connector-curvature="0" class="st0" d="M18.4,11.3h-10C8.2,11.3,8,11.1,8,11c0-0.2,0.2-0.3,0.3-0.3h10
			c0.2,0,0.3,0.2,0.3,0.3C18.8,11.1,18.6,11.3,18.4,11.3z"/>
		<path id="path14" inkscape:connector-curvature="0" class="st0" d="M17.9,13.2H9c-0.3,0-0.3-0.2-0.3-0.3c0-0.2,0.2-0.3,0.3-0.3
			h8.9c0.2,0,0.3,0.2,0.3,0.3S18.1,13.2,17.9,13.2z"/>
		<path id="path16" inkscape:connector-curvature="0" class="st0" d="M16.8,15.1H10c-0.2,0-0.3-0.2-0.3-0.3c0-0.2,0.2-0.3,0.3-0.3
			h6.8c0.2,0,0.3,0.2,0.3,0.3C17.1,15,17,15.1,16.8,15.1z"/>
		<path id="path18" inkscape:connector-curvature="0" class="st0" d="M18.4,24.7h-10c-0.2,0-0.3-0.2-0.3-0.3s0.2-0.3,0.3-0.3h10
			c0.2,0,0.3,0.2,0.3,0.3C18.8,24.6,18.6,24.7,18.4,24.7z"/>
		<path id="path20" inkscape:connector-curvature="0" class="st0" d="M18.6,22.8h-10c-0.2,0-0.3-0.2-0.3-0.3c0-0.2,0.2-0.3,0.3-0.3
			h10c0.2,0,0.3,0.2,0.3,0.3C18.9,22.7,18.8,22.8,18.6,22.8z"/>
		<path id="path22" inkscape:connector-curvature="0" class="st0" d="M17.3,21H9.4C9.2,21,9,20.8,9,20.6c0-0.2,0.2-0.3,0.3-0.3h7.9
			c0.2,0,0.3,0.2,0.3,0.3C17.6,20.8,17.5,21,17.3,21z"/>
	</g>
	<path id="path4716" inkscape:connector-curvature="0" class="st1" d="M26.4,24.1c0,0-0.3,3.4-2.9,5c-2.6,1.7-1.9,4.5-1.9,4.5"/>
</g>
<path class="st2" d="M53.2,32.9c0.7,0.9,1.9,1.5,3.1,1.4s2.3-0.8,2.9-1.8c0.7-1.2,2.3-1.7,3.6-1.1L73,36.1c1.3,0.6,1.9,2.1,1.2,3.3
	c-0.5,1-0.5,2.2,0.2,3.2c0.7,0.9,1.9,1.5,3.1,1.4c1.5-0.1,2.7,0.9,2.8,2.3L81,56.8c0.1,1.4-1,2.5-2.5,2.6c-1.2,0.1-2.3,0.8-2.9,1.8
	c-0.5,1-0.5,2.2,0.2,3.2c0.8,1.1,0.5,2.7-0.7,3.4l-9.5,5.9c-1.2,0.8-2.9,0.5-3.7-0.7c-1.5-2-4.8-1.8-6,0.4c-0.7,1.2-2.3,1.7-3.6,1.1
	l-10.2-4.7c-1.3-0.6-1.9-2.1-1.2-3.3c0.5-1,0.5-2.2-0.2-3.2c-0.7-0.9-1.9-1.5-3.1-1.4C36.2,62,35,61,34.9,59.6l-0.7-10.5
	c-0.1-1.4,1-2.5,2.5-2.6c1.2-0.1,2.3-0.8,2.9-1.8c0.5-1,0.5-2.2-0.2-3.2c-0.8-1.1-0.5-2.7,0.7-3.4l9.5-5.9
	C50.7,31.5,52.4,31.8,53.2,32.9z M50.6,37.5L44.9,41c1.2,4-1,8.3-5.3,9.8l0.4,6.4c4.4,1,7.2,5,6.6,9.1l6.2,2.8
	c1.5-1.4,3.6-2.3,5.8-2.5s4.4,0.5,6.1,1.8l5.7-3.5c-1.2-4,1-8.3,5.3-9.8l-0.4-6.4c-4.4-1-7.2-5-6.6-9.1l-6.2-2.8
	C59.2,39.8,54.2,40.1,50.6,37.5z"/>
<path class="st3" d="M37.7,62c1.2-0.1,2.4,0.5,3.1,1.4c0.7,0.9,0.8,2.2,0.2,3.2c-0.7,1.2-0.1,2.7,1.2,3.3l10.2,4.7
	c1.3,0.6,2.9,0.1,3.6-1.1c0.5-1,1.6-1.7,2.9-1.8l-0.3-5l0,0c-2.2,0.1-4.3,1-5.8,2.5l-6.2-2.8c0.7-4.2-2.2-8.1-6.6-9.1l-0.4-6.4
	c4.2-1.5,6.5-5.8,5.3-9.8l5.7-3.5c1.7,1.2,3.8,1.9,6.1,1.8l-0.3-5l0,0c-1.2,0.1-2.4-0.5-3.1-1.4c-0.8-1.1-2.5-1.4-3.7-0.7L40,38.1
	c-1.2,0.8-1.6,2.3-0.7,3.4c0.7,0.9,0.8,2.2,0.2,3.2c-0.5,1-1.6,1.7-2.9,1.8c-1.5,0.1-2.6,1.3-2.5,2.6l0.7,10.5
	C35,61,36.2,62,37.7,62z"/>
<path class="st2" d="M60.3,40.8l6.2,2.8c1.3,0.6,1.9,2.1,1.2,3.3c-0.7,1.2-2.3,1.7-3.6,1.1l-6.2-2.8c-1.3-0.6-1.9-2.1-1.2-3.3
	C57.3,40.7,58.9,40.2,60.3,40.8z"/>
<path class="st3" d="M51.1,57.9l6.2,2.8c1.3,0.6,1.9,2.1,1.2,3.3c-0.7,1.2-2.3,1.7-3.6,1.1l-6.2-2.8c-1.3-0.6-1.9-2.1-1.2-3.3
	S49.8,57.3,51.1,57.9z"/>
<path class="st4" d="M58.6,66.7c4.8-0.3,9,3.1,9.4,7.6c0.3,4.5-3.4,8.4-8.2,8.7s-9-3.1-9.4-7.6C50,70.8,53.8,67,58.6,66.7z"/>
<path class="st5" d="M59.7,83L59.7,83l-1.1-16.3l0,0c-4.8,0.3-8.5,4.1-8.2,8.7C50.6,79.9,54.8,83.3,59.7,83z"/>
<path class="st6" d="M55.5,23c4.8-0.3,9,3.1,9.4,7.6c0.6,8.3-11.1,11.9-16.1,5c-0.9-1.2-1.4-2.6-1.5-4C47,27.2,50.7,23.3,55.5,23z"
	/>
<g>
	<path class="st7" d="M56.6,39.3L55.5,23l0,0c-4.8,0.3-8.5,4.2-8.2,8.7S51.9,39.6,56.6,39.3z"/>
	<path class="st7" d="M37.4,57c4.8-0.3,9,3.1,9.4,7.6c0.3,4.5-3.4,8.4-8.2,8.7s-9-3.1-9.4-7.6c-0.1-1.4,0.2-2.9,0.9-4.1
		C31.4,58.9,34.2,57.2,37.4,57z"/>
</g>
<path class="st8" d="M38.5,73.3L38.5,73.3L37.4,57l0,0c-3.1,0.2-5.9,1.9-7.3,4.5c-0.7,1.3-1,2.7-0.9,4.1
	C29.4,70.2,33.6,73.6,38.5,73.3z"/>
<path class="st7" d="M35.8,35.2c4.8-0.3,9,3.1,9.4,7.6c0.3,4.5-3.4,8.4-8.2,8.7s-9-3.1-9.4-7.6C27.3,39.3,31,35.4,35.8,35.2z"/>
<path class="st8" d="M37,51.4L37,51.4l-1.1-16.3l0,0c-4.8,0.3-8.5,4.1-8.2,8.7C27.9,48.3,32.1,51.7,37,51.4z"/>
<path class="st6" d="M78.2,54.6c4.8-0.3,9,3.1,9.4,7.6c0.3,4.5-3.4,8.4-8.2,8.7c-4.8,0.3-9-3.1-9.4-7.6
	C69.7,58.7,73.4,54.9,78.2,54.6z"/>
<path class="st7" d="M79.4,70.8L79.4,70.8l-1.1-16.3l0,0c-4.8,0.3-8.5,4.1-8.2,8.7C70.3,67.7,74.5,71.1,79.4,70.8z"/>
<path class="st6" d="M76.7,32.7c4.8-0.3,9,3.1,9.4,7.6c0.3,4.5-3.4,8.4-8.2,8.7s-9-3.1-9.4-7.6c-0.1-1.4,0.2-2.9,0.9-4.1
	C70.8,34.6,73.6,32.9,76.7,32.7z"/>
<path class="st7" d="M77.8,49L77.8,49l-1.1-16.3l0,0c-3.1,0.2-5.9,1.9-7.3,4.5c-0.7,1.3-1,2.7-0.9,4.1C68.8,45.9,73,49.3,77.8,49z"
	/>
</svg>
