<?xml version="1.0" encoding="utf-8"?>
<!-- Generator: Adobe Illustrator 22.0.1, SVG Export Plug-In . SVG Version: 6.00 Build 0)  -->
<svg version="1.1"
	 id="svg2" inkscape:version="0.91 r13725" sodipodi:docname="rna.svg" xmlns:cc="http://creativecommons.org/ns#" xmlns:dc="http://purl.org/dc/elements/1.1/" xmlns:inkscape="http://www.inkscape.org/namespaces/inkscape" xmlns:rdf="http://www.w3.org/1999/02/22-rdf-syntax-ns#" xmlns:sodipodi="http://sodipodi.sourceforge.net/DTD/sodipodi-0.dtd" xmlns:svg="http://www.w3.org/2000/svg"
	 xmlns="http://www.w3.org/2000/svg" xmlns:xlink="http://www.w3.org/1999/xlink" x="0px" y="0px" viewBox="0 0 115.2 115.2"
	 style="enable-background:new 0 0 115.2 115.2;" xml:space="preserve">
<style type="text/css">
	.st0{fill:none;stroke:#1D1D1B;stroke-width:4.046;stroke-linecap:round;stroke-linejoin:round;stroke-miterlimit:10;}
	.st1{fill:none;stroke:#1D1D1B;stroke-width:2.831;stroke-miterlimit:10;}
</style>
<sodipodi:namedview  bordercolor="#666666" borderopacity="1" fit-margin-bottom="0" fit-margin-left="0" fit-margin-right="0" fit-margin-top="0" gridtolerance="10" guidetolerance="10" id="namedview28" inkscape:current-layer="svg2" inkscape:cx="122.71148" inkscape:cy="47.970718" inkscape:pageopacity="0" inkscape:pageshadow="2" inkscape:window-height="1440" inkscape:window-maximized="0" inkscape:window-width="2560" inkscape:window-x="0" inkscape:window-y="0" inkscape:zoom="4" objecttolerance="10" pagecolor="#ffffff" showgrid="false" units="in">
	</sodipodi:namedview>
<path class="st0" d="M82.1,49.1H87 M65.1,49.1h3.6 M48.1,49.1h4.9 M31,49.1h4.9 M82.1,60c0,3.4-2.7,6.1-6.1,6.1s-6.1-2.7-6.1-6.1V32
	h12.2V60z M65.1,60c0,3.4-2.7,6.1-6.1,6.1c-3.4,0-6.1-2.7-6.1-6.1V32h12.2V60z M48.1,60c0,3.4-2.7,6.1-6.1,6.1s-6.1-2.7-6.1-6.1V32
	h12.2L48.1,60L48.1,60z M31,41.8v24.3c0,5.4,4.4,9.7,9.7,9.7h36.5c5.4,0,9.7-4.4,9.7-9.7V41.8 M53.6,57.1c0.2,0,0.4,0.1,0.4,0.2
	s-0.2,0.2-0.4,0.2s-0.4-0.1-0.4-0.2S53.3,57.1,53.6,57.1z M53.6,52.5c0.2,0,0.4,0,0.4,0.1s-0.2,0.1-0.4,0.1s-0.4,0-0.4-0.1
	S53.3,52.5,53.6,52.5z"/>
<ellipse class="st1" cx="54.3" cy="56.6" rx="0.6" ry="0.6"/>
<ellipse class="st1" cx="54.3" cy="56.6" rx="0.6" ry="0.6"/>
<ellipse class="st1" cx="55.7" cy="56.6" rx="0.7" ry="0.6"/>
<ellipse class="st1" cx="54.3" cy="53.2" rx="0.6" ry="0.3"/>
<ellipse transform="matrix(0.9908 -0.1353 0.1353 0.9908 -7.6941 5.4731)" class="st1" cx="36.4" cy="59.4" rx="0.4" ry="0.2"/>
</svg>
