<?xml version="1.0" encoding="utf-8"?>
<!-- Generator: Adobe Illustrator 22.0.1, SVG Export Plug-In . SVG Version: 6.00 Build 0)  -->
<svg version="1.1"
	 id="svg2" inkscape:version="0.91 r13725" sodipodi:docname="yeast.svg" xmlns:cc="http://creativecommons.org/ns#" xmlns:dc="http://purl.org/dc/elements/1.1/" xmlns:inkscape="http://www.inkscape.org/namespaces/inkscape" xmlns:rdf="http://www.w3.org/1999/02/22-rdf-syntax-ns#" xmlns:sodipodi="http://sodipodi.sourceforge.net/DTD/sodipodi-0.dtd" xmlns:svg="http://www.w3.org/2000/svg"
	 xmlns="http://www.w3.org/2000/svg" xmlns:xlink="http://www.w3.org/1999/xlink" x="0px" y="0px" viewBox="0 0 144 144"
	 style="enable-background:new 0 0 144 144;" xml:space="preserve">
<style type="text/css">
	.st0{fill:#028CBF;}
	.st1{fill:#FFFFFF;}
</style>
<sodipodi:namedview  bordercolor="#666666" borderopacity="1" fit-margin-bottom="0" fit-margin-left="0" fit-margin-right="0" fit-margin-top="0" gridtolerance="10" guidetolerance="10" id="namedview28" inkscape:current-layer="svg2" inkscape:cx="98.69491" inkscape:cy="39.690678" inkscape:pageopacity="0" inkscape:pageshadow="2" inkscape:window-height="1311" inkscape:window-maximized="0" inkscape:window-width="1276" inkscape:window-x="0" inkscape:window-y="108" inkscape:zoom="1.888" objecttolerance="10" pagecolor="#ffffff" showgrid="false">
	</sodipodi:namedview>
<circle id="path4147" class="st0" cx="57.6" cy="57.6" r="30"/>
<g id="g4" transform="matrix(1.2889861,0,0,1.2889861,6.9062068,7.2255724)">
	<g id="g6">
		<path id="path8" inkscape:connector-curvature="0" class="st1" d="M43.1,28.9c-0.8-0.7-1.9-0.7-2.7,0l0,0c-0.8,0.8-0.8,1.9,0,2.7
			l3.8,3.8c0.7,0.7,1.9,0.7,2.7,0c0.8-0.8,0.8-1.9,0-2.7C46.9,32.6,43.1,28.9,43.1,28.9z"/>
		<path id="path10" inkscape:connector-curvature="0" class="st1" d="M29.7,39.9l-5.2-1.4c-1-0.2-2,0.3-2.3,1.3l0,0
			c-0.2,1,0.3,2,1.3,2.3l5.2,1.4c1,0.2,2-0.3,2.3-1.3l0,0C31.2,41.2,30.7,40.1,29.7,39.9z"/>
		<path id="path12" inkscape:connector-curvature="0" class="st1" d="M27,33.6c0.8,0.8,1.9,0.8,2.7,0l3.8-3.8c0.8-0.8,0.8-1.9,0-2.7
			s-1.9-0.8-2.7,0L27,30.9C26.2,31.6,26.2,32.8,27,33.6L27,33.6z"/>
		<path id="path14" inkscape:connector-curvature="0" class="st1" d="M36.7,27.3l4.1-3.4c0.8-0.7,0.9-1.8,0.2-2.6
			c-0.7-0.8-1.8-0.9-2.6-0.2l-4.1,3.4c-0.8,0.7-0.9,1.8-0.2,2.6C34.7,27.8,35.9,27.9,36.7,27.3z"/>
		<path id="path16" inkscape:connector-curvature="0" class="st1" d="M40.1,38.5c-0.4-1-1.5-1.4-2.5-1l-5,2c-1,0.4-1.4,1.5-1,2.5
			c0.4,1,1.5,1.4,2.5,1l5-2C40,40.6,40.5,39.5,40.1,38.5z"/>
		<path id="path18" inkscape:connector-curvature="0" class="st1" d="M55.1,35.2L50,33.9c-1-0.2-2,0.3-2.3,1.3s0.3,2,1.3,2.3
			l5.2,1.4c1,0.2,2-0.3,2.3-1.3C56.7,36.5,56.1,35.5,55.1,35.2z"/>
		<path id="path20" inkscape:connector-curvature="0" class="st1" d="M40.5,48.8c-1-0.2-2,0.3-2.3,1.3l-1.4,5.2
			c-0.2,1,0.3,2,1.3,2.3c1,0.2,2-0.3,2.3-1.3l1.4-5.2C42,50.1,41.5,49.1,40.5,48.8z"/>
		<path id="path22" inkscape:connector-curvature="0" class="st1" d="M45.5,40.5L45.5,40.5c-0.9-0.5-2-0.3-2.6,0.6L40,45.6
			c-0.5,0.9-0.3,2,0.6,2.6l0,0c0.9,0.5,2,0.3,2.6-0.6l2.9-4.5C46.6,42.3,46.3,41.1,45.5,40.5z"/>
	</g>
</g>
</svg>
