<?xml version="1.0" encoding="utf-8"?>
<!-- Generator: Adobe Illustrator 22.0.1, SVG Export Plug-In . SVG Version: 6.00 Build 0)  -->
<svg version="1.1"
	 id="svg2" inkscape:version="0.91 r13725" sodipodi:docname="yeast.svg" xmlns:cc="http://creativecommons.org/ns#" xmlns:dc="http://purl.org/dc/elements/1.1/" xmlns:inkscape="http://www.inkscape.org/namespaces/inkscape" xmlns:rdf="http://www.w3.org/1999/02/22-rdf-syntax-ns#" xmlns:sodipodi="http://sodipodi.sourceforge.net/DTD/sodipodi-0.dtd" xmlns:svg="http://www.w3.org/2000/svg"
	 xmlns="http://www.w3.org/2000/svg" xmlns:xlink="http://www.w3.org/1999/xlink" x="0px" y="0px" viewBox="0 0 144 144"
	 style="enable-background:new 0 0 144 144;" xml:space="preserve">
<style type="text/css">
	.st0{fill:#028CBF;}
	.st1{fill:#FFFFFF;}
</style>
<sodipodi:namedview  bordercolor="#666666" borderopacity="1" fit-margin-bottom="0" fit-margin-left="0" fit-margin-right="0" fit-margin-top="0" gridtolerance="10" guidetolerance="10" id="namedview28" inkscape:current-layer="svg2" inkscape:cx="98.69491" inkscape:cy="39.690678" inkscape:pageopacity="0" inkscape:pageshadow="2" inkscape:window-height="1311" inkscape:window-maximized="0" inkscape:window-width="1276" inkscape:window-x="0" inkscape:window-y="108" inkscape:zoom="1.888" objecttolerance="10" pagecolor="#ffffff" showgrid="false">
	</sodipodi:namedview>
<circle id="path4147" class="st0" cx="72" cy="72" r="72"/>
<g id="g4" transform="matrix(1.2889861,0,0,1.2889861,6.9062068,7.2255724)">
	<g id="g6">
		<path id="path8" inkscape:connector-curvature="0" class="st1" d="M59.5,25.7c-1.8-1.8-4.6-1.8-6.4,0l0,0c-1.8,1.8-1.8,4.6,0,6.4
			l9.1,9.1c1.8,1.8,4.6,1.8,6.4,0s1.8-4.6,0-6.4C68.6,34.8,59.5,25.7,59.5,25.7z"/>
		<path id="path10" inkscape:connector-curvature="0" class="st1" d="M27.3,52.1l-12.4-3.3c-2.4-0.6-4.9,0.8-5.5,3.2l0,0
			c-0.6,2.4,0.8,4.9,3.2,5.5L25,60.9c2.4,0.6,4.9-0.8,5.5-3.2l0,0C31.1,55.3,29.7,52.8,27.3,52.1z"/>
		<path id="path12" inkscape:connector-curvature="0" class="st1" d="M20.8,37c1.8,1.8,4.6,1.8,6.4,0l9.1-9.1c1.8-1.8,1.8-4.6,0-6.4
			s-4.6-1.8-6.4,0l-9.1,9.1C19.1,32.4,19.1,35.2,20.8,37L20.8,37z"/>
		<path id="path14" inkscape:connector-curvature="0" class="st1" d="M44.2,21.9l9.9-8.2c1.9-1.6,2.2-4.4,0.6-6.3
			c-1.6-1.9-4.4-2.2-6.3-0.6L38.5,15c-1.9,1.6-2.2,4.4-0.6,6.3C39.4,23.2,42.3,23.4,44.2,21.9z"/>
		<path id="path16" inkscape:connector-curvature="0" class="st1" d="M52.4,48.9c-0.9-2.3-3.6-3.4-5.9-2.5l-11.9,4.8
			c-2.3,0.9-3.4,3.6-2.5,5.9c0.9,2.3,3.6,3.4,5.9,2.5l11.9-4.8C52.2,53.9,53.3,51.2,52.4,48.9z"/>
		<path id="path18" inkscape:connector-curvature="0" class="st1" d="M88.4,41L76,37.7c-2.4-0.6-4.9,0.8-5.5,3.2s0.8,4.9,3.2,5.5
			l12.4,3.3c2.4,0.6,4.9-0.8,5.5-3.2S90.8,41.7,88.4,41z"/>
		<path id="path20" inkscape:connector-curvature="0" class="st1" d="M53.2,73.5c-2.4-0.6-4.9,0.8-5.5,3.2l-3.3,12.4
			c-0.6,2.4,0.8,4.9,3.2,5.5s4.9-0.8,5.5-3.2L56.4,79C57,76.7,55.6,74.2,53.2,73.5z"/>
		<path id="path22" inkscape:connector-curvature="0" class="st1" d="M65.2,53.7L65.2,53.7c-2.1-1.3-4.9-0.7-6.2,1.4l-7,10.8
			c-1.3,2.1-0.7,4.9,1.4,6.2l0,0c2.1,1.3,4.9,0.7,6.2-1.4L66.5,60C67.9,57.9,67.2,55.1,65.2,53.7z"/>
	</g>
</g>
</svg>
