<?xml version="1.0" encoding="utf-8"?>
<!-- Generator: Adobe Illustrator 22.0.1, SVG Export Plug-In . SVG Version: 6.00 Build 0)  -->
<svg version="1.1"
	 id="svg2" inkscape:version="0.91 r13725" sodipodi:docname="rna.svg" xmlns:cc="http://creativecommons.org/ns#" xmlns:dc="http://purl.org/dc/elements/1.1/" xmlns:inkscape="http://www.inkscape.org/namespaces/inkscape" xmlns:rdf="http://www.w3.org/1999/02/22-rdf-syntax-ns#" xmlns:sodipodi="http://sodipodi.sourceforge.net/DTD/sodipodi-0.dtd" xmlns:svg="http://www.w3.org/2000/svg"
	 xmlns="http://www.w3.org/2000/svg" xmlns:xlink="http://www.w3.org/1999/xlink" x="0px" y="0px" viewBox="0 0 115.2 115.2"
	 style="enable-background:new 0 0 115.2 115.2;" xml:space="preserve">
<style type="text/css">
	.st0{fill:#4BB1E4;}
	.st1{fill:#FFFFFF;}
	.st2{fill:none;stroke:#FFFFFF;stroke-width:1.5;stroke-linecap:round;}
</style>
<sodipodi:namedview  bordercolor="#666666" borderopacity="1" fit-margin-bottom="0" fit-margin-left="0" fit-margin-right="0" fit-margin-top="0" gridtolerance="10" guidetolerance="10" id="namedview28" inkscape:current-layer="svg2" inkscape:cx="122.71148" inkscape:cy="47.970718" inkscape:pageopacity="0" inkscape:pageshadow="2" inkscape:window-height="1440" inkscape:window-maximized="0" inkscape:window-width="2560" inkscape:window-x="0" inkscape:window-y="0" inkscape:zoom="4" objecttolerance="10" pagecolor="#ffffff" showgrid="false" units="in">
	</sodipodi:namedview>
<circle id="path4147" class="st0" cx="57.8" cy="57.5" r="30"/>
<g id="g4151" transform="matrix(3.9458649,0,0,3.9458649,-42.916256,-58.08164)">
	<g id="g4" transform="matrix(0.46323572,0,0,0.62919545,17.539333,17.573161)">
		<g id="g6">
		</g>
		<path id="path12" inkscape:connector-curvature="0" class="st1" d="M23,10.3H11.2c-0.2,0-0.4-0.2-0.4-0.4c0-0.2,0.2-0.4,0.4-0.4
			H23c0.2,0,0.4,0.2,0.4,0.4C23.4,10.1,23.2,10.3,23,10.3z"/>
		<path id="path14" inkscape:connector-curvature="0" class="st1" d="M22.3,12.7H11.9c-0.3,0-0.4-0.2-0.4-0.4s0.2-0.4,0.4-0.4h10.5
			c0.2,0,0.4,0.2,0.4,0.4C22.7,12.5,22.5,12.7,22.3,12.7z"/>
		<path id="path16" inkscape:connector-curvature="0" class="st1" d="M21.1,15.2h-8c-0.2,0-0.4-0.2-0.4-0.4s0.2-0.4,0.4-0.4h8
			c0.2,0,0.4,0.2,0.4,0.4C21.5,15,21.3,15.2,21.1,15.2z"/>
		<path id="path18" inkscape:connector-curvature="0" class="st1" d="M23,27.4H11.2c-0.2,0-0.4-0.2-0.4-0.4s0.2-0.4,0.4-0.4H23
			c0.2,0,0.4,0.2,0.4,0.4S23.2,27.4,23,27.4z"/>
		<path id="path20" inkscape:connector-curvature="0" class="st1" d="M23.2,25H11.4c-0.2,0-0.4-0.2-0.4-0.4c0-0.2,0.2-0.4,0.4-0.4
			h11.8c0.2,0,0.4,0.2,0.4,0.4C23.6,24.8,23.5,25,23.2,25z"/>
		<path id="path22" inkscape:connector-curvature="0" class="st1" d="M21.7,22.6h-9.3c-0.2,0-0.4-0.2-0.4-0.4c0-0.2,0.2-0.4,0.4-0.4
			h9.3c0.2,0,0.4,0.2,0.4,0.4C22.1,22.4,21.9,22.6,21.7,22.6z"/>
	</g>
	<path id="path4716" inkscape:connector-curvature="0" class="st2" d="M28.5,23.3c0,0-0.4,4.3-3.4,6.4s-2.2,5.7-2.2,5.7"/>
</g>
</svg>
