<?xml version="1.0" encoding="utf-8"?>
<!-- Generator: Adobe Illustrator 22.0.1, SVG Export Plug-In . SVG Version: 6.00 Build 0)  -->
<svg version="1.1"
	 id="svg2" inkscape:version="0.91 r13725" sodipodi:docname="yeast.svg" xmlns:cc="http://creativecommons.org/ns#" xmlns:dc="http://purl.org/dc/elements/1.1/" xmlns:inkscape="http://www.inkscape.org/namespaces/inkscape" xmlns:rdf="http://www.w3.org/1999/02/22-rdf-syntax-ns#" xmlns:sodipodi="http://sodipodi.sourceforge.net/DTD/sodipodi-0.dtd" xmlns:svg="http://www.w3.org/2000/svg"
	 xmlns="http://www.w3.org/2000/svg" xmlns:xlink="http://www.w3.org/1999/xlink" x="0px" y="0px" viewBox="0 0 144 144"
	 style="enable-background:new 0 0 144 144;" xml:space="preserve">
<style type="text/css">
	.st0{fill:#028CBF;}
	.st1{fill:#FFFFFF;}
</style>
<sodipodi:namedview  bordercolor="#666666" borderopacity="1" fit-margin-bottom="0" fit-margin-left="0" fit-margin-right="0" fit-margin-top="0" gridtolerance="10" guidetolerance="10" id="namedview28" inkscape:current-layer="svg2" inkscape:cx="98.69491" inkscape:cy="39.690678" inkscape:pageopacity="0" inkscape:pageshadow="2" inkscape:window-height="1311" inkscape:window-maximized="0" inkscape:window-width="1276" inkscape:window-x="0" inkscape:window-y="108" inkscape:zoom="1.888" objecttolerance="10" pagecolor="#ffffff" showgrid="false">
	</sodipodi:namedview>
<circle id="path4147" class="st0" cx="72" cy="72" r="30"/>
<g id="g4" transform="matrix(1.2889861,0,0,1.2889861,6.9062068,7.2255724)">
	<g id="g6">
		<path id="path8" inkscape:connector-curvature="0" class="st1" d="M54.2,40c-0.8-0.8-1.9-0.8-2.7,0l0,0c-0.8,0.8-0.8,1.9,0,2.7
			l3.8,3.8c0.8,0.8,1.9,0.8,2.7,0s0.8-1.9,0-2.7C58,43.8,54.2,40,54.2,40z"/>
		<path id="path10" inkscape:connector-curvature="0" class="st1" d="M40.8,51l-5.2-1.4c-1-0.2-2,0.3-2.3,1.3l0,0
			c-0.2,1,0.3,2,1.3,2.3l5.2,1.4c1,0.2,2-0.3,2.3-1.3l0,0C42.4,52.4,41.8,51.3,40.8,51z"/>
		<path id="path12" inkscape:connector-curvature="0" class="st1" d="M38.1,44.7c0.8,0.8,1.9,0.8,2.7,0l3.8-3.8
			c0.8-0.8,0.8-1.9,0-2.7c-0.7-0.8-1.9-0.8-2.7,0l-3.8,3.8C37.4,42.8,37.4,44,38.1,44.7L38.1,44.7z"/>
		<path id="path14" inkscape:connector-curvature="0" class="st1" d="M47.9,38.4L52,35c0.8-0.7,0.9-1.8,0.2-2.6
			c-0.7-0.8-1.8-0.9-2.6-0.2l-4.1,3.4c-0.8,0.7-0.9,1.8-0.2,2.6C45.9,39,47.1,39.1,47.9,38.4z"/>
		<path id="path16" inkscape:connector-curvature="0" class="st1" d="M51.3,49.7c-0.4-1-1.5-1.4-2.5-1l-5,2c-1,0.4-1.4,1.5-1,2.5
			c0.4,1,1.5,1.4,2.5,1l5-2C51.2,51.8,51.7,50.6,51.3,49.7z"/>
		<path id="path18" inkscape:connector-curvature="0" class="st1" d="M66.3,46.4L61.1,45c-1-0.2-2,0.3-2.3,1.3s0.3,2,1.3,2.3
			l5.2,1.4c1,0.2,2-0.3,2.3-1.3S67.3,46.7,66.3,46.4z"/>
		<path id="path20" inkscape:connector-curvature="0" class="st1" d="M51.6,59.9c-1-0.2-2,0.3-2.3,1.3L48,66.4c-0.2,1,0.3,2,1.3,2.3
			c1,0.2,2-0.3,2.3-1.3l1.4-5.2C53.2,61.3,52.6,60.2,51.6,59.9z"/>
		<path id="path22" inkscape:connector-curvature="0" class="st1" d="M56.6,51.7L56.6,51.7c-0.9-0.5-2-0.3-2.6,0.6l-2.9,4.5
			c-0.5,0.9-0.3,2,0.6,2.6l0,0c0.9,0.5,2,0.3,2.6-0.6l2.9-4.5C57.8,53.4,57.5,52.3,56.6,51.7z"/>
	</g>
</g>
</svg>
