<?xml version="1.0" encoding="utf-8"?>
<!-- Generator: Adobe Illustrator 22.0.1, SVG Export Plug-In . SVG Version: 6.00 Build 0)  -->
<svg version="1.1"
	 id="svg2" inkscape:version="0.91 r13725" sodipodi:docname="rna.svg" xmlns:cc="http://creativecommons.org/ns#" xmlns:dc="http://purl.org/dc/elements/1.1/" xmlns:inkscape="http://www.inkscape.org/namespaces/inkscape" xmlns:rdf="http://www.w3.org/1999/02/22-rdf-syntax-ns#" xmlns:sodipodi="http://sodipodi.sourceforge.net/DTD/sodipodi-0.dtd" xmlns:svg="http://www.w3.org/2000/svg"
	 xmlns="http://www.w3.org/2000/svg" xmlns:xlink="http://www.w3.org/1999/xlink" x="0px" y="0px" viewBox="0 0 115.2 115.2"
	 style="enable-background:new 0 0 115.2 115.2;" xml:space="preserve">
<style type="text/css">
	.st0{fill:none;stroke:#1D1D1B;stroke-width:4.046;stroke-linecap:round;stroke-linejoin:round;stroke-miterlimit:10;}
</style>
<sodipodi:namedview  bordercolor="#666666" borderopacity="1" fit-margin-bottom="0" fit-margin-left="0" fit-margin-right="0" fit-margin-top="0" gridtolerance="10" guidetolerance="10" id="namedview28" inkscape:current-layer="svg2" inkscape:cx="122.71148" inkscape:cy="47.970718" inkscape:pageopacity="0" inkscape:pageshadow="2" inkscape:window-height="1440" inkscape:window-maximized="0" inkscape:window-width="2560" inkscape:window-x="0" inkscape:window-y="0" inkscape:zoom="4" objecttolerance="10" pagecolor="#ffffff" showgrid="false" units="in">
	</sodipodi:namedview>
<path class="st0" d="M63.1,69.7c2.9-1.1,6.7-2,11-2.5 M63.1,62.4c2.9-1.1,6.7-2,11-2.5 M53.4,69.7c-2.9-1.1-6.7-2-11-2.5 M53.4,62.4
	c-2.9-1.1-6.6-2-10.9-2.5 M58.2,60.6v22.8 M58.2,60.6c0-3.6,7.7-8.5,21.9-8.5v23.1c-14.2,0-21.9,4.9-21.9,8.5
	c0-3.6-7.7-8.5-21.9-8.5V52.1C50.6,52.1,58.2,57,58.2,60.6z M72.5,34.3c0,0-7,2.2-6.3,2.6c6.5,3.9-1.1,9.2-1.1,9.9
	c0,0.8,2.3,4.4,1.1,5.7c-0.7,0.7-1.3,1.4-1.7,2.1 M54.8,55.7c0.9-4.5,3.8-11.1-4.1-11.1c-2.5,0-2.8-3.2-2.8-3.2
	c0-7.3,8.3-8.4,8.3-5.8c1.7,1.6,5-2.7,5-2.7l-2.6-5.2 M39.4,52.1c-0.4-1.6-0.6-3.2-0.6-4.9c0-10.7,8.7-19.5,19.5-19.5
	c10.7,0,19.5,8.7,19.5,19.5c0,1.7-0.2,3.3-0.6,4.9"/>
</svg>
