<?xml version="1.0" encoding="utf-8"?>
<!-- Generator: Adobe Illustrator 22.0.1, SVG Export Plug-In . SVG Version: 6.00 Build 0)  -->
<svg version="1.1"
	 id="svg2" inkscape:version="0.91 r13725" sodipodi:docname="rna.svg" xmlns:cc="http://creativecommons.org/ns#" xmlns:dc="http://purl.org/dc/elements/1.1/" xmlns:inkscape="http://www.inkscape.org/namespaces/inkscape" xmlns:rdf="http://www.w3.org/1999/02/22-rdf-syntax-ns#" xmlns:sodipodi="http://sodipodi.sourceforge.net/DTD/sodipodi-0.dtd" xmlns:svg="http://www.w3.org/2000/svg"
	 xmlns="http://www.w3.org/2000/svg" xmlns:xlink="http://www.w3.org/1999/xlink" x="0px" y="0px" viewBox="0 0 115.2 115.2"
	 style="enable-background:new 0 0 115.2 115.2;" xml:space="preserve">
<style type="text/css">
	.st0{fill:#4EB79B;}
	.st1{fill:#40A084;}
	.st2{fill:#F7A872;}
	.st3{fill:#E09461;}
	.st4{fill:#8ED7E0;}
	.st5{fill:#7CC3D1;}
</style>
<sodipodi:namedview  bordercolor="#666666" borderopacity="1" fit-margin-bottom="0" fit-margin-left="0" fit-margin-right="0" fit-margin-top="0" gridtolerance="10" guidetolerance="10" id="namedview28" inkscape:current-layer="svg2" inkscape:cx="122.71148" inkscape:cy="47.970718" inkscape:pageopacity="0" inkscape:pageshadow="2" inkscape:window-height="1440" inkscape:window-maximized="0" inkscape:window-width="2560" inkscape:window-x="0" inkscape:window-y="0" inkscape:zoom="4" objecttolerance="10" pagecolor="#ffffff" showgrid="false" units="in">
	</sodipodi:namedview>
<g>
	<path class="st0" d="M51.7,65.6l-1.9,1.9l-4.1,4.1l-2.4-2.4L42,67.9l5.9-5.9l0,0c0.5,0.7,1.2,1.2,1.8,1.8
		C50.4,64.5,51,65.1,51.7,65.6z"/>
	<polygon class="st0" points="49.8,67.5 45.7,71.6 43.3,69.2 42,67.9 47.9,62 	"/>
</g>
<polygon class="st1" points="48.6,63.9 43.3,69.2 42,67.9 46.6,63.3 "/>
<rect x="28.5" y="72.6" transform="matrix(0.7071 -0.7071 0.7071 0.7071 -43.7114 48.4388)" class="st0" width="16.2" height="8.8"/>
<rect x="26.6" y="73.4" transform="matrix(0.7071 -0.7071 0.7071 0.7071 -42.9238 46.5375)" class="st1" width="16.2" height="3.4"/>
<rect x="40.9" y="64.8" transform="matrix(0.7071 -0.7071 0.7071 0.7071 -37.2066 51.133)" class="st2" width="4.5" height="11.4"/>
<rect x="38" y="65.9" transform="matrix(0.7071 -0.7071 0.7071 0.7071 -36.0388 48.3141)" class="st3" width="4.5" height="3.4"/>
<path class="st2" d="M27.7,85.9L27.7,85.9c-2.2-2.2-2.2-5.8,0-8.1l0,0l8.1,8.1l0,0C33.5,88.2,29.9,88.2,27.7,85.9z"/>
<path class="st3" d="M30.1,80.3L30.1,80.3l-2.4-2.4l0,0c-2.2,2.2-2.2,5.8,0,8.1l0,0c0.4,0.4,0.9,0.8,1.4,1
	C27.9,84.8,28.3,82.1,30.1,80.3z"/>
<circle class="st2" cx="63.7" cy="49.9" r="22.3"/>
<circle class="st4" cx="63.7" cy="49.9" r="16.7"/>
<path class="st5" d="M55.6,41.8c5.9-5.9,15.1-6.5,21.7-1.7c-0.5-0.7-1.1-1.4-1.7-2c-6.5-6.5-17.1-6.5-23.7,0s-6.5,17.1,0,23.7
	c0.6,0.6,1.3,1.2,2,1.7C49.1,56.9,49.7,47.7,55.6,41.8z"/>
<path class="st3" d="M63.7,67.7c-4.6,0-9.1-1.7-12.6-5.2c-6.9-6.9-6.9-18.2,0-25.2c3.4-3.4,7.8-5.2,12.6-5.2s9.2,1.9,12.6,5.2
	s5.2,7.8,5.2,12.6s-1.9,9.2-5.2,12.6C72.8,66,68.3,67.7,63.7,67.7z M63.7,34.2c-4,0-8,1.5-11.1,4.6c-6.1,6.1-6.1,16.1,0,22.2
	c6.1,6.1,16.1,6.1,22.2,0l0,0c3-3,4.6-6.9,4.6-11.1s-1.6-8.1-4.6-11.1C71.7,35.8,67.7,34.2,63.7,34.2z"/>
<g>
	<path class="st1" d="M63.4,44.2c-1.4,1.9-3,3.5-4.9,4.9c-0.1,0.1-0.3,0.2-0.4,0.2c-1.1,0.5-2.3,0.1-2.9-1c0,0,0,0,0,0
		c-0.6-1-0.3-2.3,0.7-3c1.5-1.1,2.8-2.4,3.8-3.8c0.7-0.9,1.8-1.2,2.8-0.7c0.1,0,0.1,0.1,0.2,0.1c0,0,0,0,0,0
		C63.9,41.5,64.2,43.1,63.4,44.2z"/>
	<path class="st1" d="M65.1,55.6c-1.4,1.9-3,3.5-4.9,4.9c-0.1,0.1-0.3,0.2-0.4,0.2c-1.1,0.5-2.3,0.1-2.9-1c0,0,0,0,0,0
		c-0.6-1-0.3-2.3,0.7-3c1.5-1.1,2.8-2.4,3.8-3.8c0.7-0.9,1.8-1.2,2.8-0.7c0.1,0,0.1,0.1,0.2,0.1c0,0,0,0,0,0
		C65.6,52.9,65.9,54.5,65.1,55.6z"/>
	<path class="st1" d="M73.7,52.8C73.7,52.9,73.7,52.9,73.7,52.8c-0.1,0-0.1,0-0.1,0.1c-1.2,0.6-2.6-0.1-3.1-1.3
		c-0.8-2.2-1.2-4.4-1.3-6.7c-0.1-1.4,1.1-2.5,2.4-2.4c0,0,0,0,0,0c0.3,0,0.5,0.1,0.7,0.2c0.8,0.3,1.3,1.1,1.4,2
		c0.1,1.8,0.4,3.6,1.1,5.3C75.2,51.1,74.8,52.3,73.7,52.8z"/>
</g>
<g>
	<path class="st0" d="M63.4,44.2c-1.4,1.9-3,3.5-4.9,4.9c-0.1,0.1-0.3,0.2-0.4,0.2c-0.4-0.2-0.8-0.5-1-1c0,0,0,0,0,0
		c-0.6-1-0.3-2.3,0.7-3c1.5-1.1,2.8-2.4,3.8-3.8c0.2-0.3,0.6-0.6,0.9-0.7c0.1,0,0.1,0.1,0.2,0.1c0,0,0,0,0,0
		C63.9,41.5,64.2,43.1,63.4,44.2z"/>
	<path class="st0" d="M65.1,55.6c-1.4,1.9-3,3.5-4.9,4.9c-0.1,0.1-0.3,0.2-0.4,0.2c-0.4-0.2-0.8-0.5-1-1c0,0,0,0,0,0
		c-0.6-1-0.3-2.3,0.7-3c1.5-1.1,2.8-2.4,3.8-3.8c0.2-0.3,0.6-0.6,0.9-0.7c0.1,0,0.1,0.1,0.2,0.1c0,0,0,0,0,0
		C65.6,52.9,65.9,54.5,65.1,55.6z"/>
	<path class="st0" d="M73.7,52.8C73.7,52.9,73.7,52.9,73.7,52.8c-0.1,0-0.1,0-0.1,0.1c-0.5-0.2-1-0.7-1.2-1.3
		c-0.8-2.2-1.2-4.4-1.3-6.7c0-1,0.5-1.8,1.4-2.2c0.8,0.3,1.3,1.1,1.4,2c0.1,1.8,0.4,3.6,1.1,5.3C75.2,51.1,74.8,52.3,73.7,52.8z"/>
</g>
<path class="st1" d="M69.7,59c0,0.6-0.4,1.2-1,1.4c-0.2,0.1-0.3,0.1-0.5,0.1c-0.8,0-1.5-0.7-1.5-1.5c0-0.8,0.7-1.5,1.5-1.5
	c0.2,0,0.4,0,0.5,0.1C69.3,57.8,69.7,58.3,69.7,59z"/>
<path class="st0" d="M69.7,59c0,0.6-0.4,1.2-1,1.4c-0.6-0.2-1-0.8-1-1.4s0.4-1.2,1-1.4C69.3,57.8,69.7,58.3,69.7,59z"/>
</svg>
