<?xml version="1.0" encoding="UTF-8" standalone="no"?>
<svg
   xmlns:dc="http://purl.org/dc/elements/1.1/"
   xmlns:cc="http://creativecommons.org/ns#"
   xmlns:rdf="http://www.w3.org/1999/02/22-rdf-syntax-ns#"
   xmlns:svg="http://www.w3.org/2000/svg"
   xmlns="http://www.w3.org/2000/svg"
   xmlns:sodipodi="http://sodipodi.sourceforge.net/DTD/sodipodi-0.dtd"
   xmlns:inkscape="http://www.inkscape.org/namespaces/inkscape"
   version="1.1"
   x="0px"
   y="0px"
   viewBox="0 0 144 144"
   enable-background="new 0 0 48 48"
   xml:space="preserve"
   id="svg2"
   inkscape:version="0.91 r13725"
   sodipodi:docname="rna.svg"
   width="1.6in"
   height="1.6in"><metadata
     id="metadata32"><rdf:RDF><cc:Work
         rdf:about=""><dc:format>image/svg+xml</dc:format><dc:type
           rdf:resource="http://purl.org/dc/dcmitype/StillImage" /><dc:title></dc:title></cc:Work></rdf:RDF></metadata><defs
     id="defs30" /><sodipodi:namedview
     pagecolor="#ffffff"
     bordercolor="#666666"
     borderopacity="1"
     objecttolerance="10"
     gridtolerance="10"
     guidetolerance="10"
     inkscape:pageopacity="0"
     inkscape:pageshadow="2"
     inkscape:window-width="2560"
     inkscape:window-height="1440"
     id="namedview28"
     showgrid="false"
     inkscape:zoom="4"
     inkscape:cx="122.71148"
     inkscape:cy="47.970718"
     inkscape:window-x="0"
     inkscape:window-y="0"
     inkscape:window-maximized="0"
     inkscape:current-layer="svg2"
     fit-margin-top="0"
     fit-margin-left="0"
     fit-margin-right="0"
     fit-margin-bottom="0"
     units="in" /><circle
     style="opacity:1;fill:#f45820;fill-opacity:1;stroke:none;stroke-width:1.5;stroke-linecap:round;stroke-miterlimit:4;stroke-dasharray:none;stroke-dashoffset:0;stroke-opacity:1"
     id="path4147"
     cx="72"
     cy="72"
     r="72" /><g
     id="g4151"
     transform="matrix(3.9458649,0,0,3.9458649,-42.916256,-58.08164)"><g
       transform="matrix(0.46323572,0,0,0.62919545,17.539333,17.573161)"
       id="g4"><g
         id="g6" /><path
         inkscape:connector-curvature="0"
         id="path12"
         d="m 38.188,4.513 -28.377,0 c -0.552,0 -1,-0.448 -1,-1 0,-0.552 0.448,-1 1,-1 l 28.376,0 c 0.553,0 1,0.448 1,1 0,0.552 -0.447,1 -0.999,1 z"
         style="fill:#ffffff;fill-opacity:1" /><path
         inkscape:connector-curvature="0"
         id="path14"
         d="m 36.551,10.312 -25.102,0 c -0.552,0 -1,-0.448 -1,-1 0,-0.552 0.448,-1 1,-1 l 25.102,0 c 0.553,0 1,0.448 1,1 0,0.552 -0.447,1 -1,1 z"
         style="fill:#ffffff;fill-opacity:1" /><path
         inkscape:connector-curvature="0"
         id="path16"
         d="m 33.613,16.109 -19.23,0 c -0.552,0 -1,-0.448 -1,-1 0,-0.552 0.448,-1 1,-1 l 19.23,0 c 0.553,0 1,0.448 1,1 0,0.552 -0.447,1 -1,1 z"
         style="fill:#ffffff;fill-opacity:1" /><path
         inkscape:connector-curvature="0"
         id="path18"
         d="m 38.188,45.488 -28.377,0 c -0.552,0 -1,-0.447 -1,-1 0,-0.553 0.448,-1 1,-1 l 28.376,0 c 0.553,0 1,0.447 1,1 0,0.553 -0.447,1 -0.999,1 z"
         style="fill:#ffffff;fill-opacity:1" /><path
         inkscape:connector-curvature="0"
         id="path20"
         d="m 38.77012,39.688 -28.38,0 c -0.5519993,0 -0.9999993,-0.447 -0.9999993,-1 0,-0.553 0.448,-1 0.9999993,-1 l 28.379,0 c 0.553,0 1,0.447 1,1 0,0.553 -0.447,1 -0.999,1 z"
         style="fill:#ffffff;fill-opacity:1" /><path
         inkscape:connector-curvature="0"
         id="path22"
         d="m 35.092,33.885 -22.19,0 c -0.552,0 -1,-0.447 -1,-1 0,-0.553 0.448,-1 1,-1 l 22.19,0 c 0.553,0 1,0.447 1,1 0,0.553 -0.447,1 -1,1 z"
         style="fill:#ffffff;fill-opacity:1" /></g><path
       inkscape:connector-curvature="0"
       id="path4716"
       d="m 35.976965,18.472457 c 0,0 -0.988751,10.247056 -8.134724,15.280698 -7.145974,5.033641 -5.393188,13.707684 -5.393188,13.707684"
       style="fill:none;fill-rule:evenodd;stroke:#ffffff;stroke-width:1.5;stroke-linecap:round;stroke-linejoin:miter;stroke-miterlimit:4;stroke-dasharray:none;stroke-opacity:1" /></g></svg>