<?xml version="1.0" encoding="UTF-8" standalone="no"?>
<svg
   xmlns:dc="http://purl.org/dc/elements/1.1/"
   xmlns:cc="http://creativecommons.org/ns#"
   xmlns:rdf="http://www.w3.org/1999/02/22-rdf-syntax-ns#"
   xmlns:svg="http://www.w3.org/2000/svg"
   xmlns="http://www.w3.org/2000/svg"
   xmlns:sodipodi="http://sodipodi.sourceforge.net/DTD/sodipodi-0.dtd"
   xmlns:inkscape="http://www.inkscape.org/namespaces/inkscape"
   version="1.1"
   x="0px"
   y="0px"
   viewBox="0 0 144 144"
   xml:space="preserve"
   id="svg2"
   inkscape:version="0.91 r13725"
   sodipodi:docname="yeast.svg"
   width="144"
   height="144"><metadata
     id="metadata32"><rdf:RDF><cc:Work
         rdf:about=""><dc:format>image/svg+xml</dc:format><dc:type
           rdf:resource="http://purl.org/dc/dcmitype/StillImage" /><dc:title></dc:title></cc:Work></rdf:RDF></metadata><defs
     id="defs30" /><sodipodi:namedview
     pagecolor="#ffffff"
     bordercolor="#666666"
     borderopacity="1"
     objecttolerance="10"
     gridtolerance="10"
     guidetolerance="10"
     inkscape:pageopacity="0"
     inkscape:pageshadow="2"
     inkscape:window-width="1276"
     inkscape:window-height="1311"
     id="namedview28"
     showgrid="false"
     fit-margin-top="0"
     fit-margin-left="0"
     fit-margin-right="0"
     fit-margin-bottom="0"
     inkscape:zoom="1.888"
     inkscape:cx="98.69491"
     inkscape:cy="39.690678"
     inkscape:window-x="0"
     inkscape:window-y="108"
     inkscape:window-maximized="0"
     inkscape:current-layer="svg2" /><circle
     style="opacity:1;fill:#f45820;fill-opacity:1;stroke:none;stroke-width:1.5;stroke-linecap:round;stroke-miterlimit:4;stroke-dasharray:none;stroke-dashoffset:0;stroke-opacity:1"
     id="path4147"
     cx="72"
     cy="72"
     r="72" /><g
     id="g4"
     transform="matrix(1.2889861,0,0,1.2889861,6.9062068,7.2255724)"
     style="fill:#ffffff;fill-opacity:1"><g
       id="g6"
       style="fill:#ffffff;fill-opacity:1"><path
         d="m 59.5,25.7 c -1.8,-1.8 -4.6,-1.8 -6.4,0 l 0,0 c -1.8,1.8 -1.8,4.6 0,6.4 l 9.1,9.1 c 1.8,1.8 4.6,1.8 6.4,0 1.8,-1.8 1.8,-4.6 0,-6.4 l -9.1,-9.1 z"
         id="path8"
         inkscape:connector-curvature="0"
         style="fill:#ffffff;fill-opacity:1" /><path
         d="M 27.3,52.1 14.9,48.8 C 12.5,48.2 10,49.6 9.4,52 l 0,0 c -0.6,2.4 0.8,4.9 3.2,5.5 L 25,60.9 c 2.4,0.6 4.9,-0.8 5.5,-3.2 l 0,0 c 0.6,-2.4 -0.8,-4.9 -3.2,-5.6 z"
         id="path10"
         inkscape:connector-curvature="0"
         style="fill:#ffffff;fill-opacity:1" /><path
         d="m 20.8,37 c 1.8,1.8 4.6,1.8 6.4,0 l 9.1,-9.1 c 1.8,-1.8 1.8,-4.6 0,-6.4 -1.8,-1.8 -4.6,-1.8 -6.4,0 l -9.1,9.1 c -1.7,1.8 -1.7,4.6 0,6.4 l 0,0 z"
         id="path12"
         inkscape:connector-curvature="0"
         style="fill:#ffffff;fill-opacity:1" /><path
         d="m 44.2,21.9 9.9,-8.2 C 56,12.1 56.3,9.3 54.7,7.4 53.1,5.5 50.3,5.2 48.4,6.8 L 38.5,15 c -1.9,1.6 -2.2,4.4 -0.6,6.3 1.5,1.9 4.4,2.1 6.3,0.6 z"
         id="path14"
         inkscape:connector-curvature="0"
         style="fill:#ffffff;fill-opacity:1" /><path
         d="m 52.4,48.9 c -0.9,-2.3 -3.6,-3.4 -5.9,-2.5 l -11.9,4.8 c -2.3,0.9 -3.4,3.6 -2.5,5.9 0.9,2.3 3.6,3.4 5.9,2.5 l 11.9,-4.8 c 2.3,-0.9 3.4,-3.6 2.5,-5.9 z"
         id="path16"
         inkscape:connector-curvature="0"
         style="fill:#ffffff;fill-opacity:1" /><path
         d="M 88.4,41 76,37.7 c -2.4,-0.6 -4.9,0.8 -5.5,3.2 -0.6,2.4 0.8,4.9 3.2,5.5 l 12.4,3.3 c 2.4,0.6 4.9,-0.8 5.5,-3.2 0.6,-2.4 -0.8,-4.8 -3.2,-5.5 z"
         id="path18"
         inkscape:connector-curvature="0"
         style="fill:#ffffff;fill-opacity:1" /><path
         d="m 53.2,73.5 c -2.4,-0.6 -4.9,0.8 -5.5,3.2 l -3.3,12.4 c -0.6,2.4 0.8,4.9 3.2,5.5 2.4,0.6 4.9,-0.8 5.5,-3.2 L 56.4,79 C 57,76.7 55.6,74.2 53.2,73.5 Z"
         id="path20"
         inkscape:connector-curvature="0"
         style="fill:#ffffff;fill-opacity:1" /><path
         d="m 65.2,53.7 0,0 C 63.1,52.4 60.3,53 59,55.1 l -7,10.8 c -1.3,2.1 -0.7,4.9 1.4,6.2 l 0,0 c 2.1,1.3 4.9,0.7 6.2,-1.4 L 66.5,60 c 1.4,-2.1 0.7,-4.9 -1.3,-6.3 z"
         id="path22"
         inkscape:connector-curvature="0"
         style="fill:#ffffff;fill-opacity:1" /></g></g></svg>