<svg xmlns="http://www.w3.org/2000/svg" viewBox="0 0 253.99 96.33"><defs><style>.cls-1{font-size:24.54px;fill:#fff;font-family:HelveticaNeue, Helvetica Neue;}.cls-2{fill:#47ae33;}.cls-3{fill:#ed114c;}.cls-4{fill:#fbbf16;}</style></defs><title>Asset 2b</title><g id="Layer_2" data-name="Layer 2"><g id="Layer_1-2" data-name="Layer 1"><text class="cls-1" transform="translate(24.29 25.24)">avin Lab</text><path class="cls-2" d="M21.73,9.76a37.74,37.74,0,0,0-2.56-7.62A3.66,3.66,0,0,0,15.9,0a3.34,3.34,0,0,0-1.55.37,3.79,3.79,0,0,0-1.72,5A30.25,30.25,0,0,1,15.38,18a30.24,30.24,0,0,1-2.71,12.58,4.23,4.23,0,0,0-.34,1.56,4.14,4.14,0,0,0,.09.87,3.69,3.69,0,0,0,2,2.55A3.52,3.52,0,0,0,19.13,34a28.29,28.29,0,0,0,2.1-5.62c.2-.72.37-1.4.52-2.11a39,39,0,0,0,.9-8.25,40.41,40.41,0,0,0-.92-8.25"/><path class="cls-3" d="M6.43,5.84a1.86,1.86,0,0,0-.21-.31,3.19,3.19,0,0,0-.86-.82,3.4,3.4,0,0,0-1.87-.57,2.79,2.79,0,0,0-1.23.23A3.37,3.37,0,0,0,1,5.2,3.73,3.73,0,0,0,.24,6.51,3.67,3.67,0,0,0,.52,9.56a16.28,16.28,0,0,1,2.17,6.61,16.93,16.93,0,0,1,.11,1.88,16.58,16.58,0,0,1-2.3,8.5l-.15.27A3.53,3.53,0,0,0,0,28.73a3.6,3.6,0,0,0,1.64,2.73,3.93,3.93,0,0,0,.78.36,3.37,3.37,0,0,0,1,.16,3.41,3.41,0,0,0,2.95-1.72A24.09,24.09,0,0,0,9.64,19.59c0-.5.06-1,.06-1.52A24,24,0,0,0,6.43,5.84"/><path class="cls-4" d="M12.65,30.59A29.94,29.94,0,0,0,15.38,18a32.19,32.19,0,0,0-.17-3.32,30.8,30.8,0,0,0-9.85-10s.09,0,.09.07a4.23,4.23,0,0,1,.77.76,1.66,1.66,0,0,1,.21.31A24.13,24.13,0,0,1,9.7,18c0,.52,0,1-.06,1.53A24.77,24.77,0,0,1,12.29,30.8V32a4.42,4.42,0,0,1,.26-1.26.38.38,0,0,0,.1-.17"/></g></g></svg>